<?xml version="1.0" standalone="no"?>
<svg id="SvgjsSvg1001" width="600" height="600" xmlns="http://www.w3.org/2000/svg" version="1.1" xmlns:xlink="http://www.w3.org/1999/xlink" xmlns:svgjs="http://svgjs.com/svgjs" class="svg-paper" viewBox="0 0 600 600"><title id="SvgjsTitle9394">x=exp(max(y,cos((y-cos(y)))))|y=(sin(x)-cos(x))|dTest=0.0|sd=0.2|sm=0.1|ts=0.05 | generated with FlowLines</title><g id="SvgjsG9395"><polyline id="SvgjsPolyline9396" points="0,521.08 12.99,497.41 18.9,486.96 26.6,474.09 36.24,458.89 51.27,436.46 68.39,411.83 82.42,392.35 93.37,378.07 101.06,368.86 107.13,362.21 113.54,355.9 120.37,350.04 125.19,346.47 127.69,344.81 132.87,341.79 138.3,339.23 141.1,338.15 146.84,336.43 149.78,335.82 155.73,335.11 161.73,335.12 164.72,335.4 170.61,336.48 173.51,337.27 179.15,339.31 181.89,340.54 187.18,343.36 189.74,344.93 194.67,348.34 201.64,354.02 206.04,358.1 210.27,362.36 216.33,369.01 220.22,373.58 225.88,380.58 233.17,390.11 240.27,399.78 250.71,414.45 272.84,446.56 284.38,464.1 293.88,479.39 302.91,494.96 317.35,521.26 322,528.96 325.39,533.91 329.15,538.58 331.22,540.76 333.44,542.77 335.83,544.58 338.41,546.12 341.16,547.31 344.06,548.07 347.04,548.35 350.03,548.1 352.93,547.36 355.69,546.2 358.27,544.68 360.68,542.88 362.91,540.87 364.98,538.71 368.76,534.05 372.15,529.1 375.3,524 394.21,489.89 400.28,479.53 406.56,469.31 414.67,456.69 422.99,444.21 436.57,424.42 446.9,409.68 455.64,397.49 464.59,385.46 472.01,376.03 477.81,369.14 483.86,362.48 490.26,356.15 497.07,350.27 501.88,346.69 506.92,343.44 509.53,341.97 514.94,339.38 520.58,337.32 526.4,335.89 532.35,335.13 538.35,335.1 544.3,335.79 550.14,337.17 555.79,339.17 561.22,341.71 566.41,344.72 573.75,349.93 580.58,355.78 587,362.09 593.07,368.73 598.88,375.61" fill="none" stroke="#476227" stroke-width="1"/><polyline id="SvgjsPolyline9397" points="0.15,541.83 4.14,533.77 15.2,509.14 20.28,498.26 25.67,487.54 32.87,474.39 42.13,458.95 53.52,441.31 65.32,423.94 80.98,401.95 90.01,389.97 99.45,378.32 107.46,369.38 111.67,365.1 116.05,361 122.98,355.26 127.88,351.8 130.42,350.21 135.69,347.34 138.41,346.09 141.2,344.97 146.93,343.2 152.82,342.1 155.81,341.83 161.8,341.85 164.79,342.15 170.68,343.29 173.56,344.11 179.17,346.23 181.89,347.5 187.14,350.39 192.15,353.7 196.92,357.33 201.48,361.24 205.84,365.35 214.1,374.06 219.96,380.88 227.46,390.25 234.7,399.82 241.77,409.52 252.14,424.23 260.6,436.62 267.24,446.61 276.9,461.8 286.04,477.31 293.13,490.52 299.7,504.01 313.34,534.05 317.51,542.03 320.64,547.14 324.19,551.98 326.15,554.25 328.27,556.38 330.54,558.34 332.97,560.09 335.56,561.6 338.3,562.82 341.16,563.73 344.1,564.29 347.09,564.48 350.09,564.29 353.03,563.74 355.89,562.85 358.63,561.63 361.23,560.12 363.66,558.37 365.94,556.42 368.05,554.29 371.86,549.66 373.57,547.19 376.71,542.08 380.88,534.11 395.8,501.35 401.09,490.58 405.28,482.61 411.16,472.15 417.32,461.85 423.71,451.7 431.94,439.16 442.08,424.28 454.2,407.13 463.1,395.06 472.34,383.25 480.11,374.1 488.36,365.39 494.98,359.29 502.05,353.73 507.05,350.42 509.65,348.92 515.02,346.25 520.63,344.13 526.44,342.64 532.38,341.86 538.38,341.83 544.33,342.55 550.15,343.99 555.78,346.06 561.17,348.69 566.32,351.77 573.59,357.07 580.37,362.99 586.75,369.33 592.8,376 598.59,382.88" fill="none" stroke="#476227" stroke-width="1"/><polyline id="SvgjsPolyline9398" points="0.71,500.98 29.54,458.91 70.96,400.02 79.72,387.85 86.89,378.22 92.43,371.13 98.15,364.18 104.14,357.46 110.45,351.05 117.16,345.06 121.9,341.38 124.35,339.65 129.44,336.47 134.76,333.7 140.31,331.42 146.06,329.71 148.99,329.08 154.94,328.32 160.93,328.24 163.93,328.46 169.85,329.4 172.76,330.11 178.46,331.98 183.95,334.4 186.61,335.79 191.75,338.88 194.23,340.57 201.33,346.09 207.97,352.17 214.21,358.65 222.07,367.72 229.52,377.12 238.48,389.15 248.97,403.78 280.05,447.94 295.45,470.11 314.03,497.38 319.24,504.73 322.85,509.52 328.68,516.37 333,520.53 335.36,522.38 337.88,524.01 340.57,525.33 343.42,526.25 346.39,526.67 349.38,526.52 352.3,525.84 355.07,524.7 357.67,523.21 360.1,521.46 362.39,519.52 364.55,517.44 368.58,512.99 372.33,508.31 377.65,501.05 404.77,461.45 444.43,404.98 456.66,387.92 465.66,375.91 475.09,364.25 481.07,357.52 485.23,353.2 489.56,349.05 494.09,345.11 498.82,341.43 503.78,338.06 506.35,336.51 511.67,333.74 517.22,331.45 522.96,329.73 528.86,328.63 534.84,328.2 540.83,328.45 546.75,329.38 552.54,330.95 558.14,333.09 563.52,335.75 568.67,338.83 575.94,344.13 580.52,348.01 587.02,354.23 593.16,360.81 599,367.65" fill="none" stroke="#476227" stroke-width="1"/><polyline id="SvgjsPolyline9399" points="0.44,495.09 9.37,483.03 30.4,453.81 75.61,390.25 86.36,375.82 95.79,364.15 101.78,357.44 108.11,351.04 112.55,347 119.61,341.42 122.07,339.72 127.18,336.57 132.53,333.86 138.11,331.65 143.88,330.01 149.79,329.01 152.78,328.76 158.77,328.78 161.76,329.04 167.67,330.08 170.57,330.83 176.24,332.79 181.7,335.28 184.34,336.7 186.92,338.23 191.91,341.56 198.97,347.14 203.42,351.16 207.69,355.38 211.8,359.74 217.73,366.52 223.42,373.49 228.93,380.61 241.36,397.53 262.08,426.97 277.39,449.21 289.03,466.69 298.68,481.89 315.77,510.11 320.67,517.66 324.19,522.52 328.06,527.1 330.18,529.22 332.45,531.18 334.91,532.9 340.22,535.68 343.05,536.67 346.01,537.16 349,537.09 351.93,536.46 354.72,535.36 357.33,533.88 359.75,532.12 362.01,530.15 364.13,528.02 368.02,523.46 371.59,518.64 374.96,513.67 395.58,480.57 410.38,457.99 422.23,440.66 439.38,416.04 449.77,401.34 460.36,386.78 471.37,372.55 477.16,365.66 483.21,359 487.43,354.73 494.1,348.69 498.8,344.96 503.73,341.54 508.89,338.49 511.57,337.13 517.09,334.79 522.81,333.01 528.7,331.86 534.68,331.4 540.67,331.64 546.59,332.58 552.38,334.17 557.97,336.34 563.33,339.03 568.45,342.15 575.69,347.49 580.25,351.39 586.72,357.64 592.84,364.24 598.68,371.09" fill="none" stroke="#476227" stroke-width="1"/><polyline id="SvgjsPolyline9400" points="1.02,559.49 2.6,556.94 5.47,551.68 9.31,543.54 12.8,535.24 21.41,512.84 25.94,501.73 30.85,490.78 36.16,480.02 43.36,466.86 52.64,451.44 62.45,436.35 70.91,423.96 83.16,406.91 94.14,392.65 103.82,381.19 112.09,372.49 116.45,368.38 121,364.47 125.77,360.83 130.77,357.51 133.36,356 138.73,353.34 144.35,351.23 147.24,350.41 150.17,349.77 156.12,349.06 159.12,348.99 162.11,349.12 168.05,349.96 170.97,350.66 173.84,351.53 179.42,353.74 184.75,356.48 187.32,358.03 192.28,361.4 197.01,365.09 201.53,369.04 205.87,373.18 214.09,381.92 219.94,388.76 227.44,398.12 234.68,407.69 243.46,419.85 252,432.18 260.3,444.68 266.72,454.82 272.89,465.11 280.16,478.23 286.83,491.67 290.51,499.87 293.99,508.18 303.71,533.36 307.13,541.69 310.98,549.82 312.4,552.47 315.54,557.58 319.14,562.37 321.15,564.6 323.29,566.7 325.59,568.63 328.02,570.38 330.59,571.93 333.28,573.25 336.07,574.34 338.95,575.19 341.89,575.78 344.87,576.11 347.87,576.17 350.86,575.98 353.83,575.52 356.74,574.8 359.58,573.83 362.32,572.62 364.95,571.18 367.46,569.53 369.82,567.69 374.12,563.51 377.86,558.81 379.53,556.33 382.57,551.15 386.51,543.06 389.98,534.76 398.59,512.36 401.97,504.02 405.55,495.76 409.35,487.6 413.39,479.56 419.12,469.02 425.18,458.66 429.91,451.01 441.4,433.43 451.65,418.63 462.26,404.09 471.46,392.24 479.17,383.05 487.32,374.25 491.62,370.06 496.09,366.06 503.18,360.53 508.2,357.24 510.81,355.75 516.2,353.13 521.83,351.08 527.67,349.68 533.63,349.03 539.62,349.16 545.55,350.07 551.32,351.7 556.88,353.95 562.19,356.74 567.25,359.96 574.4,365.42 581.08,371.44 587.39,377.86 593.39,384.57 599.16,391.48" fill="none" stroke="#476227" stroke-width="1"/><polyline id="SvgjsPolyline9401" points="0.05,476.68 6.19,470.1 14.06,461.04 21.68,451.77 29.11,442.35 39.99,428.01 47.09,418.33 71.45,384.12 80.29,372 89.5,360.16 93.34,355.55 99.34,348.85 105.69,342.47 110.15,338.46 117.24,332.91 122.24,329.6 127.46,326.66 132.91,324.15 138.57,322.14 144.38,320.68 150.3,319.66 153.27,319.31 159.27,319.06 162.26,319.17 168.22,319.86 174.08,321.16 179.78,323.01 182.56,324.13 187.97,326.73 190.59,328.19 195.66,331.4 198.1,333.14 205.12,338.77 209.55,342.82 215.85,349.24 221.82,355.98 229.38,365.3 240.16,379.71 266.26,416.37 280.44,435.73 296.9,457.13 304.46,466.45 310.28,473.31 316.31,479.99 320.5,484.29 324.89,488.38 329.55,492.15 332.01,493.87 334.58,495.42 337.26,496.77 340.05,497.85 342.95,498.61 345.93,498.98 348.93,498.94 351.89,498.48 354.77,497.65 357.54,496.51 360.2,495.12 362.74,493.53 367.54,489.93 372.02,485.95 378.35,479.55 384.37,472.85 392.08,463.67 399.59,454.3 408.76,442.43 426.59,418.31 456.21,376.79 463.41,367.19 470.89,357.81 478.81,348.8 482.99,344.49 487.34,340.36 491.88,336.44 496.63,332.78 499.09,331.06 504.19,327.89 509.5,325.11 515.04,322.8 517.88,321.83 523.68,320.31 529.6,319.37 535.59,319.06 541.58,319.37 547.5,320.3 553.31,321.81 558.94,323.87 564.37,326.42 569.58,329.4 574.56,332.74 579.31,336.4 586.06,342.36 592.39,348.75 598.38,355.47" fill="none" stroke="#476227" stroke-width="1"/><polyline id="SvgjsPolyline9402" points="1.14,478.13 7.15,471.43 12.97,464.57 20.54,455.26 27.95,445.82 35.22,436.27 45.91,421.79 72.02,385.14 80.87,373.03 90.08,361.2 97.9,352.09 104.13,345.6 108.51,341.49 113.07,337.6 120.33,332.29 125.46,329.17 128.11,327.76 133.57,325.29 139.23,323.31 145.06,321.9 151,321.09 157,320.92 159.99,321.07 165.94,321.85 168.88,322.47 174.63,324.15 180.21,326.37 182.91,327.66 185.57,329.06 190.7,332.17 193.18,333.85 197.97,337.46 204.76,343.36 209.06,347.55 215.2,354.13 222.94,363.3 228.5,370.38 240.96,387.28 268.74,426.42 288.1,453.15 306,477.22 315.29,489 319.19,493.56 323.28,497.95 327.65,502.05 332.33,505.81 334.78,507.54 337.37,509.05 340.1,510.29 342.97,511.17 345.93,511.61 348.93,511.56 351.87,511.02 354.72,510.07 357.42,508.76 359.98,507.2 364.72,503.54 369.08,499.42 373.18,495.03 379.01,488.18 384.61,481.13 402.66,457.17 420.34,432.94 455.15,384.06 462.29,374.42 469.67,364.96 475.45,358.06 479.45,353.59 483.6,349.26 487.91,345.09 492.42,341.13 497.13,337.42 499.57,335.67 504.63,332.44 509.92,329.61 515.43,327.24 521.14,325.41 527,324.16 532.97,323.54 538.97,323.58 544.92,324.27 550.77,325.59 556.46,327.49 561.95,329.92 567.21,332.8 572.24,336.07 574.66,337.83 579.35,341.57 586,347.63 592.26,354.1 598.19,360.87" fill="none" stroke="#476227" stroke-width="1"/><polyline id="SvgjsPolyline9403" points="1.12,574.31 5,569.74 10,562.26 12.93,557.02 15.5,551.6 17.8,546.06 19.91,540.44 28.63,514.89 32.75,503.62 37.29,492.51 42.29,481.61 47.75,470.92 53.61,460.45 59.81,450.18 67.95,437.58 79.92,420.32 90.71,405.92 100.18,394.29 106.15,387.55 110.28,383.2 114.56,379 119.01,374.97 123.65,371.18 128.52,367.67 133.62,364.52 136.27,363.11 141.76,360.69 144.59,359.7 147.47,358.87 153.37,357.78 156.36,357.52 159.36,357.47 162.35,357.62 165.33,357.97 171.19,359.25 174.05,360.16 179.59,362.43 182.28,363.78 187.45,366.82 192.37,370.24 197.07,373.97 201.57,377.94 205.89,382.1 214.1,390.86 221.85,400.01 229.27,409.44 236.43,419.07 243.38,428.86 250.11,438.79 256.62,448.87 262.86,459.12 268.78,469.56 275.6,482.92 281.71,496.62 287.1,510.61 295.84,536.16 298.9,544.62 301.14,550.18 303.63,555.64 306.46,560.93 308.03,563.49 311.52,568.37 315.53,572.82 320.07,576.74 322.53,578.46 327.77,581.37 330.53,582.55 336.25,584.34 342.16,585.37 348.15,585.62 354.12,585.11 359.98,583.82 362.83,582.89 365.61,581.77 368.31,580.46 370.91,578.97 373.41,577.3 375.78,575.47 378.03,573.49 380.14,571.36 383.98,566.75 385.7,564.29 388.79,559.15 391.5,553.8 393.89,548.3 398.1,537.06 407.84,508.69 411.05,500.28 415.72,489.23 419.54,481.08 423.61,473.05 427.91,465.15 433.97,454.79 443.61,439.58 453.76,424.73 464.4,410.2 473.69,398.43 481.51,389.33 489.81,380.67 496.45,374.59 503.53,369.04 508.54,365.73 513.79,362.85 519.3,360.48 525.04,358.73 527.98,358.12 530.95,357.71 533.94,357.49 536.94,357.48 539.93,357.67 542.9,358.06 548.75,359.41 554.39,361.45 559.79,364.06 564.93,367.14 567.42,368.83 572.2,372.44 578.99,378.34 585.39,384.67 591.48,391.3 599.21,400.47" fill="none" stroke="#476227" stroke-width="1"/><polyline id="SvgjsPolyline9404" points="1.46,461.8 8.03,455.65 14.29,449.19 22.29,440.24 29.97,431.03 39.25,419.24 46.45,409.64 74.39,370.61 81.53,360.96 90.85,349.21 96.77,342.43 100.89,338.08 107.39,331.86 111.97,327.97 119.22,322.65 124.32,319.5 129.64,316.72 135.15,314.36 140.85,312.48 146.69,311.1 152.62,310.26 158.62,309.97 161.61,310.04 164.61,310.26 170.55,311.09 176.38,312.47 179.25,313.35 184.86,315.48 187.6,316.71 192.91,319.48 195.49,321.01 200.49,324.33 207.58,329.87 212.06,333.87 218.43,340.22 224.45,346.91 230.19,353.84 235.72,360.94 242.85,370.59 263.73,399.92 278,419.22 285.39,428.67 291.08,435.64 296.92,442.49 302.95,449.17 309.21,455.63 313.55,459.78 320.38,465.63 325.22,469.19 330.33,472.32 335.77,474.84 338.61,475.8 341.52,476.51 344.49,476.93 347.49,477.05 350.48,476.85 353.44,476.36 356.34,475.59 359.16,474.58 364.56,471.97 369.64,468.77 374.44,465.18 379.02,461.3 385.56,455.12 391.8,448.63 397.81,441.94 405.55,432.77 413.03,423.39 420.31,413.85 427.43,404.19 455.37,365.16 462.65,355.61 470.27,346.35 478.41,337.54 482.73,333.37 487.22,329.4 491.93,325.67 496.84,322.23 501.97,319.12 504.62,317.71 510.06,315.19 515.69,313.12 518.57,312.27 524.42,310.96 530.37,310.19 536.36,309.98 542.35,310.33 548.28,311.24 554.1,312.68 559.78,314.63 565.27,317.04 570.56,319.86 578.1,324.78 582.85,328.44 589.6,334.38 593.87,338.6 599.97,345.21" fill="none" stroke="#476227" stroke-width="1"/><polyline id="SvgjsPolyline9405" points="1.35,462.65 7.8,456.38 15.99,447.61 23.84,438.53 31.41,429.22 38.76,419.73 45.94,410.12 72.11,373.51 79.23,363.85 88.53,352.08 94.42,345.28 98.53,340.91 105.01,334.67 109.57,330.76 116.79,325.4 121.88,322.23 127.19,319.43 132.7,317.07 138.39,315.18 144.23,313.81 150.18,312.99 156.17,312.75 159.17,312.85 165.13,313.49 168.08,314.02 173.9,315.49 179.55,317.48 182.31,318.66 187.68,321.34 190.28,322.84 192.83,324.42 197.75,327.85 204.74,333.51 209.15,337.58 215.44,344.02 221.39,350.77 227.08,357.74 237.93,372.1 262.3,406.31 278.31,428.05 285.65,437.55 293.15,446.91 300.88,456.09 306.88,462.79 313.13,469.27 317.49,473.39 322.07,477.27 326.93,480.78 332.16,483.71 337.7,486.02 340.56,486.92 343.5,487.51 346.49,487.77 349.48,487.66 352.45,487.21 355.34,486.44 358.15,485.38 360.86,484.1 363.48,482.64 368.45,479.28 373.12,475.52 377.57,471.49 383.93,465.13 390.02,458.5 397.85,449.4 405.43,440.1 412.82,430.65 428.9,408.96 456.81,369.91 464.07,360.35 469.73,353.35 477.68,344.37 481.87,340.08 486.25,335.97 490.81,332.08 495.59,328.46 498.06,326.75 503.17,323.61 508.5,320.86 511.25,319.65 516.88,317.58 522.67,316.03 528.59,315.04 534.57,314.64 540.57,314.84 546.51,315.62 552.35,316.98 558.05,318.87 563.55,321.25 568.85,324.06 576.38,328.98 581.12,332.65 587.86,338.62 592.11,342.85 598.2,349.48" fill="none" stroke="#476227" stroke-width="1"/><polyline id="SvgjsPolyline9406" points="0.31,586.67 5.06,583.01 9.47,578.94 13.51,574.51 17.05,569.67 18.65,567.13 21.51,561.86 24,556.4 27.23,548 30.06,539.46 36.18,519.37 39.89,507.96 44,496.69 47.41,488.36 52.4,477.45 59.34,464.15 66.94,451.22 73.41,441.12 83.67,426.33 92.72,414.37 102.3,402.82 108.36,396.17 112.57,391.89 116.93,387.77 121.47,383.85 128.67,378.46 133.77,375.3 136.41,373.88 141.88,371.43 144.71,370.43 150.52,368.95 153.49,368.49 159.47,368.19 162.47,368.35 165.45,368.72 168.39,369.29 171.29,370.04 176.94,372.06 182.34,374.66 184.95,376.15 189.98,379.42 194.77,383.03 199.35,386.9 203.75,390.98 210.06,397.4 214.09,401.84 219.94,408.68 227.41,418.07 234.57,427.7 241.45,437.54 248.03,447.57 254.29,457.81 258.73,465.63 262.93,473.59 265.59,478.97 269.33,487.16 272.78,495.47 275.95,503.89 279.78,515.27 287.71,541.07 291.65,552.41 295.18,560.68 296.51,563.37 299.49,568.57 302.93,573.49 306.87,578.02 311.29,582.07 316.15,585.57 321.39,588.49 326.92,590.82 332.66,592.54 335.59,593.18 341.53,594.02 344.53,594.22 350.52,594.18 356.49,593.56 359.44,593.03 365.25,591.52 370.86,589.41 376.21,586.71 381.22,583.42 385.82,579.56 387.94,577.44 391.8,572.85 395.18,567.89 398.1,562.66 400.64,557.22 402.89,551.66 406.78,540.31 413.8,517.36 416.59,508.8 419.61,500.32 422.89,491.94 426.46,483.68 430.33,475.56 435.9,464.93 440.37,457.12 448.27,444.37 456.66,431.94 465.5,419.82 472.91,410.38 480.69,401.24 488.92,392.52 493.26,388.37 497.78,384.42 504.93,378.96 509.99,375.74 515.3,372.95 520.86,370.71 526.64,369.12 529.6,368.6 532.58,368.29 535.58,368.18 538.57,368.28 541.56,368.59 544.51,369.1 550.3,370.68 555.86,372.92 561.18,375.7 566.24,378.91 573.4,384.37 580.1,390.36 586.44,396.75 592.48,403.43 598.27,410.31" fill="none" stroke="#476227" stroke-width="1"/><polyline id="SvgjsPolyline9407" points="1.66,449.21 8.47,443.33 14.93,437.06 23.1,428.28 30.9,419.15 38.39,409.78 47.43,397.81 70.15,366.12 79.08,354.06 88.48,342.38 96.53,333.48 102.99,327.21 107.52,323.28 114.69,317.84 119.72,314.58 124.97,311.66 130.4,309.13 133.19,308.01 138.88,306.11 144.7,304.68 150.63,303.74 153.61,303.46 159.61,303.29 165.6,303.63 168.57,304 174.47,305.1 177.38,305.83 180.26,306.68 185.89,308.73 188.65,309.91 194.02,312.58 196.64,314.05 201.71,317.25 208.93,322.62 213.5,326.51 220,332.74 226.13,339.33 231.95,346.18 237.54,353.24 242.95,360.43 267.44,394.55 278.23,408.96 289.54,422.96 295.46,429.74 301.6,436.31 308.02,442.62 312.49,446.63 319.54,452.22 324.52,455.56 329.77,458.46 335.31,460.76 338.18,461.63 341.11,462.27 344.08,462.67 347.08,462.81 350.07,462.68 353.05,462.29 355.98,461.66 358.85,460.79 364.39,458.5 369.64,455.61 372.17,453.99 377.03,450.48 381.68,446.69 388.33,440.62 394.65,434.22 400.72,427.57 406.58,420.74 412.26,413.76 424.98,397.05 445.94,367.78 454.83,355.7 462.23,346.26 468.06,339.4 472.1,334.97 476.31,330.68 480.68,326.58 485.24,322.68 490,319.03 494.97,315.66 500.14,312.62 502.8,311.24 505.51,309.95 511.06,307.68 516.78,305.86 522.62,304.5 528.56,303.64 534.54,303.29 540.54,303.46 546.5,304.14 552.38,305.32 558.14,306.98 563.76,309.09 569.2,311.62 574.44,314.53 576.99,316.12 581.92,319.53 588.95,325.15 593.39,329.19 599.71,335.59" fill="none" stroke="#476227" stroke-width="1"/><polyline id="SvgjsPolyline9408" points="2.34,595.91 7.57,592.98 12.58,589.68 14.96,587.85 19.42,583.83 23.44,579.38 25.27,577.01 28.6,572.02 30.09,569.42 32.78,564.06 33.99,561.31 37.18,552.9 39.92,544.32 47.27,518.34 50.79,506.87 54.77,495.55 59.29,484.44 63.05,476.26 65.74,470.9 70.01,462.98 73.02,457.78 81.01,445.09 89.64,432.83 98.89,421.02 104.77,414.21 108.85,409.81 113.07,405.55 117.45,401.45 122.02,397.55 126.78,393.91 131.78,390.59 134.37,389.08 139.74,386.41 142.52,385.28 148.25,383.51 151.18,382.89 154.15,382.48 157.15,382.27 160.15,382.27 163.14,382.48 166.11,382.9 169.04,383.51 174.77,385.29 180.27,387.69 182.92,389.1 185.51,390.61 190.5,393.93 195.27,397.57 199.83,401.47 204.21,405.57 208.43,409.84 216.45,418.76 220.29,423.37 225.84,430.46 231.16,437.71 236.27,445.12 244.26,457.82 248.72,465.63 251.53,470.93 255.51,479 257.98,484.47 262.5,495.59 266.47,506.91 270,518.38 277.35,544.36 280.09,552.93 282.15,558.56 284.49,564.09 287.18,569.45 288.68,572.05 292,577.04 295.8,581.69 300.04,585.92 304.7,589.7 309.71,592.99 315.01,595.81 320.54,598.14 326.24,599.99" fill="none" stroke="#476227" stroke-width="1"/><polyline id="SvgjsPolyline9409" points="371.26,599.02 376.87,596.9 382.27,594.3 387.42,591.22 389.87,589.5 394.51,585.69 398.73,581.43 400.67,579.14 404.2,574.29 407.27,569.14 409.94,563.77 412.26,558.24 414.31,552.6 417.88,541.14 426.1,512.29 428.87,503.73 431.9,495.25 435.25,486.9 438.92,478.68 442.91,470.62 445.73,465.32 451.75,454.94 458.21,444.83 465.08,434.99 472.34,425.44 480.02,416.22 488.2,407.44 494.72,401.24 501.66,395.51 506.56,392.04 509.09,390.44 514.35,387.56 519.86,385.19 525.6,383.46 531.52,382.48 534.51,382.3 537.51,382.33 540.5,382.57 543.47,383.01 549.28,384.47 554.88,386.62 560.24,389.32 565.34,392.48 572.55,397.86 579.31,403.8 585.68,410.15 591.73,416.81 599.39,426.05" fill="none" stroke="#476227" stroke-width="1"/><polyline id="SvgjsPolyline9410" points="0.24,438.55 7.29,432.96 13.93,426.89 20.25,420.47 28.25,411.53 35.87,402.26 43.21,392.77 67.89,358.79 76.92,346.81 82.57,339.81 86.48,335.25 90.51,330.81 94.7,326.51 101.29,320.39 105.91,316.56 113.21,311.3 118.32,308.16 120.94,306.71 126.33,304.08 131.89,301.82 137.6,299.98 143.43,298.56 149.35,297.6 152.34,297.3 155.33,297.11 161.33,297.08 167.31,297.53 170.28,297.93 173.24,298.45 179.08,299.82 184.8,301.62 187.61,302.68 190.38,303.83 195.78,306.43 203.55,310.97 210.88,316.19 215.52,320 222.13,326.09 228.38,332.58 234.3,339.35 239.97,346.34 245.44,353.49 268.33,385.06 279.16,399.44 284.78,406.47 290.58,413.35 296.6,420.04 300.76,424.36 305.06,428.55 311.8,434.51 318.98,439.94 324.04,443.15 329.37,445.91 334.96,448.08 337.84,448.9 340.78,449.51 343.75,449.89 346.75,450.04 349.75,449.95 352.73,449.63 355.68,449.07 358.58,448.3 364.2,446.22 369.55,443.52 372.13,441.99 377.11,438.64 381.86,434.98 388.64,429.06 395.06,422.75 401.19,416.16 407.08,409.36 412.77,402.38 420.11,392.89 425.47,385.67 441.26,363.76 450.16,351.69 457.56,342.24 465.37,333.13 469.47,328.75 473.73,324.53 478.16,320.49 482.78,316.66 487.59,313.07 492.6,309.77 500.47,305.41 505.94,302.96 508.74,301.88 514.45,300.02 520.27,298.6 526.19,297.62 532.17,297.11 538.17,297.08 544.15,297.52 550.08,298.42 555.92,299.78 561.65,301.57 567.23,303.77 575.28,307.79 580.41,310.89 587.75,316.1 594.65,321.88 599.02,325.99" fill="none" stroke="#476227" stroke-width="1"/><polyline id="SvgjsPolyline9411" points="15.1,598.96 20.17,595.75 24.96,592.14 27.24,590.19 31.5,585.97 33.49,583.72 37.12,578.95 38.78,576.45 41.77,571.25 45.53,563.08 48.62,554.62 52.07,543.13 57.49,522.84 60.77,511.3 64.48,499.89 68.74,488.68 73.63,477.72 79.15,467.06 85.26,456.74 91.93,446.76 99.13,437.17 102.94,432.53 108.92,425.81 113.11,421.51 117.46,417.38 122.01,413.47 126.77,409.82 129.24,408.11 134.36,404.98 139.72,402.31 142.5,401.18 148.23,399.4 151.17,398.79 154.14,398.37 157.13,398.16 160.13,398.16 163.12,398.37 166.09,398.79 169.02,399.4 174.75,401.18 177.53,402.31 182.9,404.98 185.49,406.5 190.48,409.82 195.24,413.47 199.79,417.38 204.15,421.51 208.33,425.81 216.23,434.83 221.79,441.91 225.33,446.76 231.99,456.74 238.11,467.06 242.3,475.02 244.91,480.43 249.64,491.45 252.78,499.89 256.48,511.3 258.98,519.95 266,546.02 268.64,554.62 271.72,563.08 275.49,571.25 276.93,573.88 280.13,578.95 283.77,583.72 285.75,585.97 287.84,588.13 292.29,592.14 297.08,595.75 302.15,598.95" fill="none" stroke="#476227" stroke-width="1"/><polyline id="SvgjsPolyline9412" points="392.44,598.76 397.5,595.53 402.27,591.89 406.7,587.85 408.77,585.68 410.74,583.42 414.35,578.63 417.52,573.54 420.28,568.21 423.76,559.92 426.65,551.39 429.17,542.75 437.03,513.8 439.68,505.2 442.62,496.7 445.89,488.31 449.51,480.07 453.49,472 457.82,464.11 462.47,456.41 467.43,448.9 472.7,441.6 478.27,434.53 484.16,427.73 490.39,421.23 497.01,415.15 501.68,411.38 506.57,407.9 509.1,406.3 514.36,403.41 519.87,401.05 525.62,399.32 528.56,398.73 531.53,398.34 534.52,398.16 537.52,398.18 540.51,398.42 543.48,398.87 549.29,400.34 554.89,402.48 560.24,405.19 565.34,408.35 572.55,413.74 579.28,419.71 585.6,426.11 591.57,432.85 599.02,442.25" fill="none" stroke="#476227" stroke-width="1"/><polyline id="SvgjsPolyline9413" points="1.39,426.08 6.15,422.43 12.93,416.51 19.34,410.19 27.42,401.32 33.2,394.43 40.63,385.01 63.8,353.63 72.92,341.73 78.63,334.77 82.57,330.24 88.73,323.69 93.03,319.5 97.5,315.49 104.53,309.88 111.98,304.84 117.18,301.84 125.29,297.94 130.89,295.79 136.62,294.03 142.46,292.66 148.38,291.7 151.37,291.39 154.36,291.18 160.36,291.09 163.35,291.2 169.33,291.76 172.29,292.2 178.17,293.4 181.08,294.15 186.8,295.94 192.39,298.12 195.13,299.35 203.1,303.53 208.19,306.7 213.09,310.15 220.11,315.79 226.72,321.89 232.98,328.36 238.92,335.12 244.62,342.08 250.13,349.2 271.47,378.19 282.46,392.45 292.12,403.92 298.24,410.52 302.48,414.76 306.88,418.84 313.82,424.57 318.7,428.05 323.82,431.18 329.19,433.85 334.82,435.93 337.71,436.71 340.66,437.29 343.63,437.66 346.63,437.81 349.63,437.74 352.61,437.44 355.57,436.93 358.48,436.21 364.14,434.23 369.55,431.65 374.71,428.59 379.63,425.16 386.62,419.49 391.05,415.44 397.4,409.07 403.46,402.41 409.28,395.55 420.38,381.38 441.72,352.39 449.01,342.86 456.63,333.59 462.64,326.89 466.82,322.59 471.16,318.45 475.67,314.49 480.36,310.75 485.24,307.25 490.3,304.03 498.22,299.77 503.71,297.35 506.51,296.28 512.22,294.42 518.03,292.95 523.94,291.9 526.91,291.53 532.9,291.11 538.9,291.13 544.88,291.59 550.81,292.47 556.67,293.77 562.42,295.47 568.04,297.56 576.2,301.37 581.42,304.32 586.46,307.57 591.32,311.09 598.26,316.81" fill="none" stroke="#476227" stroke-width="1"/><polyline id="SvgjsPolyline9414" points="30.72,599.14 35.47,595.48 39.93,591.47 42.04,589.33 45.97,584.79 47.78,582.41 51.1,577.41 52.61,574.82 55.33,569.47 58.78,561.16 61.64,552.63 64.14,543.98 71.92,515.01 75.51,503.56 78.57,495.1 83.23,484.04 87.2,475.97 91.58,468.11 94.73,463 98.06,458 101.56,453.13 105.24,448.4 109.11,443.81 113.17,439.39 117.43,435.17 121.9,431.17 126.6,427.44 129.05,425.7 134.13,422.51 136.76,421.08 142.23,418.63 145.06,417.63 150.88,416.16 153.84,415.72 156.83,415.49 159.83,415.47 162.83,415.66 165.8,416.06 168.74,416.66 174.47,418.42 177.25,419.54 182.62,422.22 185.2,423.74 190.18,427.1 197.18,432.74 201.56,436.84 205.74,441.15 211.64,447.94 215.34,452.66 218.86,457.52 222.21,462.5 225.37,467.6 229.78,475.45 233.78,483.51 238.47,494.55 241.56,503 245.17,514.44 252.96,543.41 255.44,552.07 258.28,560.61 261.68,568.94 264.36,574.3 267.44,579.45 269.13,581.93 272.82,586.65 276.9,591.05 279.08,593.12 281.33,595.1 286.06,598.79" fill="none" stroke="#476227" stroke-width="1"/><polyline id="SvgjsPolyline9415" points="408.07,598.85 412.8,595.17 415.05,593.19 417.23,591.13 421.32,586.74 425.02,582.01 426.71,579.54 429.79,574.39 432.49,569.03 435.9,560.71 438.74,552.17 441.22,543.52 448.18,517.43 452.62,503.1 455.7,494.65 459.15,486.34 461.67,480.89 465.8,472.9 470.34,465.13 475.28,457.61 480.62,450.37 484.41,445.71 490.45,439.04 494.72,434.83 499.21,430.85 503.93,427.14 508.9,423.78 511.48,422.25 516.84,419.56 522.45,417.45 528.28,416.04 531.25,415.63 534.24,415.42 537.24,415.43 540.23,415.65 543.2,416.08 546.13,416.71 551.85,418.51 557.33,420.95 559.97,422.37 565.06,425.55 572.22,431 576.69,435 583.02,441.4 588.9,448.21 594.36,455.36 599.43,462.8" fill="none" stroke="#476227" stroke-width="1"/><polyline id="SvgjsPolyline9416" points="0.44,415.4 7.6,409.95 14.32,403.97 20.67,397.59 26.72,390.93 32.53,384.06 38.16,377.03 61.7,345.94 71.05,334.22 76.93,327.4 81,322.99 85.21,318.71 89.56,314.59 94.08,310.64 101.18,305.11 106.13,301.72 113.88,297.14 121.98,293.23 127.56,291.03 136.16,288.39 142.02,287.1 144.98,286.59 150.93,285.88 156.92,285.56 159.92,285.56 162.92,285.65 168.9,286.14 174.83,287.02 177.77,287.61 180.7,288.29 186.47,289.94 194.9,293.07 200.35,295.58 205.65,298.39 213.28,303.15 220.53,308.49 227.39,314.31 233.88,320.54 240.05,327.1 245.94,333.9 251.61,340.89 258.94,350.38 275.17,371.96 284.46,383.74 290.26,390.62 294.26,395.1 302.64,403.68 309.34,409.69 314.05,413.41 318.97,416.83 324.13,419.89 329.55,422.46 335.21,424.45 338.12,425.18 341.07,425.71 344.05,426.04 347.05,426.15 350.05,426.05 353.03,425.73 355.98,425.21 358.89,424.49 364.56,422.52 369.98,419.96 375.15,416.92 380.08,413.5 387.07,407.84 391.5,403.79 395.77,399.57 401.9,392.98 407.78,386.17 417.15,374.46 442.54,341 450.15,331.72 458.17,322.8 462.39,318.53 466.75,314.41 471.28,310.47 475.97,306.74 480.84,303.24 485.89,299.99 491.1,297.02 496.47,294.35 501.99,291.99 510.51,289.11 516.33,287.64 522.23,286.55 531.18,285.66 537.18,285.56 543.17,285.87 549.12,286.57 555.02,287.67 560.84,289.14 566.55,290.98 574.87,294.39 580.24,297.07 585.45,300.05 590.49,303.3 597.72,308.65" fill="none" stroke="#476227" stroke-width="1"/><polyline id="SvgjsPolyline9417" points="43.99,599.91 48.53,595.99 52.86,591.84 54.91,589.65 58.75,585.04 62.21,580.14 63.79,577.59 65.28,574.99 67.98,569.63 71.43,561.32 74.33,552.8 76.87,544.17 84.05,518.14 86.73,509.55 89.73,501.06 93.12,492.73 96.95,484.59 101.28,476.69 106.11,469.1 111.46,461.87 117.36,455.08 123.84,448.83 128.5,445.05 130.93,443.3 136.02,440.13 138.68,438.73 144.19,436.39 149.96,434.74 152.91,434.22 155.9,433.91 158.89,433.82 161.89,433.95 164.87,434.3 167.82,434.86 173.56,436.57 179.06,438.97 181.7,440.39 186.76,443.61 189.19,445.38 193.82,449.19 200.26,455.47 206.13,462.29 211.45,469.54 216.25,477.15 220.54,485.06 224.35,493.22 227.72,501.56 230.69,510.06 233.36,518.65 240.53,544.68 243.09,553.31 246.01,561.82 249.5,570.11 250.82,572.81 253.74,578.05 257.04,583.06 258.84,585.46 260.72,587.79 264.76,592.23 269.12,596.35 271.41,598.29" fill="none" stroke="#476227" stroke-width="1"/><polyline id="SvgjsPolyline9418" points="37.48,599.01 41.97,595.04 44.09,592.92 46.13,590.72 49.92,586.07 53.3,581.11 54.83,578.53 56.27,575.9 58.86,570.49 61.12,564.93 64.04,556.42 66.56,547.78 74.37,518.82 77.95,507.36 81.01,498.9 85.69,487.85 89.7,479.8 94.14,471.97 99.02,464.41 102.52,459.54 106.23,454.82 112.17,448.06 116.41,443.82 120.88,439.82 123.21,437.93 128.07,434.41 133.21,431.31 135.88,429.95 141.43,427.67 147.21,426.08 153.12,425.09 156.11,424.8 159.11,424.73 162.1,424.87 165.08,425.23 168.03,425.79 173.78,427.48 179.29,429.85 181.95,431.24 187.05,434.39 189.5,436.12 194.2,439.85 198.66,443.87 202.87,448.13 208.78,454.92 212.45,459.67 215.91,464.57 220.72,472.17 225.08,480.05 228.99,488.15 233.53,499.26 236.5,507.75 239.15,516.35 247,545.31 249.55,553.94 252.48,562.44 256.01,570.72 258.79,576.04 260.33,578.62 263.69,583.58 265.52,585.96 269.47,590.47 271.58,592.61 276.03,596.63 278.36,598.52" fill="none" stroke="#476227" stroke-width="1"/><polyline id="SvgjsPolyline9419" points="421.16,599.89 425.76,596.05 430.1,591.9 432.15,589.71 435.99,585.1 437.77,582.69 441.04,577.66 442.53,575.05 445.23,569.7 448.69,561.39 451.59,552.87 454.14,544.24 460.49,521.1 464.97,506.79 468.09,498.35 470.4,492.81 474.24,484.67 477.08,479.38 481.74,471.69 485.15,466.75 488.78,461.98 492.67,457.4 496.8,453.06 501.2,448.98 505.88,445.22 510.84,441.85 516.1,438.97 521.64,436.67 527.42,435.08 530.38,434.59 533.36,434.31 536.36,434.26 539.36,434.42 542.33,434.81 545.27,435.4 551,437.18 556.47,439.63 561.66,442.65 564.14,444.33 568.88,448 573.35,452 579.56,458.52 585.2,465.53 590.3,472.94 594.89,480.68 598.97,488.7" fill="none" stroke="#476227" stroke-width="1"/><polyline id="SvgjsPolyline9420" points="415.16,598.57 419.61,594.55 421.72,592.41 423.73,590.19 427.47,585.5 429.19,583.04 432.31,577.92 433.73,575.27 436.28,569.84 438.5,564.27 441.38,555.74 444.67,544.21 450.87,521.02 453.44,512.4 455.32,506.7 458.41,498.24 461.88,489.94 464.43,484.51 468.62,476.55 473.25,468.83 476.58,463.84 481.95,456.62 485.78,452.01 491.94,445.44 496.33,441.36 500.97,437.55 505.87,434.09 511.05,431.07 516.5,428.57 522.21,426.74 528.07,425.47 531.04,425.03 534.03,424.81 537.03,424.81 540.02,425.02 542.99,425.44 548.81,426.87 554.41,429.02 559.75,431.76 562.31,433.31 567.24,436.74 571.9,440.51 578.43,446.7 584.45,453.39 589.99,460.48 595.06,467.92 599.67,475.65" fill="none" stroke="#476227" stroke-width="1"/><polyline id="SvgjsPolyline9421" points="1.82,402.98 6.59,399.35 13.38,393.44 17.68,389.26 23.87,382.72 29.8,375.95 35.53,369.01 55.86,343.02 65.33,331.39 69.26,326.85 75.34,320.22 81.72,313.87 86.15,309.83 93.09,304.09 100.39,298.83 108.04,294.11 113.34,291.29 118.78,288.76 127.18,285.54 132.92,283.79 141.7,281.82 150.62,280.65 159.61,280.32 168.59,280.83 174.54,281.64 180.42,282.81 189.09,285.21 197.52,288.35 202.98,290.83 208.31,293.6 216,298.26 223.35,303.46 230.32,309.14 236.95,315.23 245.3,323.85 251.25,330.6 257,337.52 277.34,363.51 286.79,375.16 292.69,381.95 296.76,386.36 300.96,390.64 305.32,394.76 309.86,398.69 314.6,402.37 319.56,405.74 324.76,408.72 330.22,411.21 335.92,413.09 338.84,413.76 344.79,414.51 347.79,414.56 350.78,414.41 353.76,414.05 359.61,412.73 365.25,410.71 370.66,408.1 375.81,405.03 380.72,401.58 385.41,397.84 389.9,393.87 394.23,389.71 398.4,385.4 404.42,378.71 414,367.17 432.46,343.52 439.99,334.18 447.82,325.09 456.1,316.4 460.44,312.26 464.93,308.28 469.58,304.48 474.39,300.9 479.36,297.54 484.48,294.42 489.77,291.58 495.19,289.01 503.57,285.74 509.3,283.96 515.12,282.52 521.02,281.43 526.98,280.71 532.97,280.35 538.97,280.37 547.93,281.11 553.86,282.06 559.71,283.36 565.48,285.02 573.93,288.11 582.09,291.89 587.35,294.77 592.46,297.91 599.83,303.08" fill="none" stroke="#476227" stroke-width="1"/><polyline id="SvgjsPolyline9422" points="59.37,598.15 65.89,591.96 69.89,587.49 71.76,585.15 73.55,582.74 76.86,577.74 78.39,575.15 81.17,569.84 84.77,561.59 87.84,553.13 90.57,544.56 97.48,521.57 100.35,513.04 102.46,507.43 105.97,499.14 108.6,493.75 113.03,485.92 116.34,480.91 119.95,476.12 121.88,473.82 125.98,469.45 130.42,465.42 135.23,461.82 140.39,458.77 143.1,457.48 145.89,456.38 148.75,455.48 151.67,454.8 154.63,454.35 157.62,454.15 160.62,454.19 163.61,454.48 166.56,455 169.46,455.76 172.3,456.73 175.07,457.89 180.34,460.74 185.27,464.16 187.59,466.06 191.98,470.15 196.03,474.58 201.48,481.73 204.74,486.77 209.11,494.63 212.9,502.79 215.16,508.35 217.24,513.98 220.08,522.52 226.98,545.51 229.73,554.07 232.85,562.52 236.52,570.73 239.36,576.01 240.92,578.58 242.56,581.09 246.11,585.93 248.01,588.25 252.05,592.68 258.65,598.8" fill="none" stroke="#476227" stroke-width="1"/><polyline id="SvgjsPolyline9423" points="52.53,598.69 56.87,594.54 58.92,592.35 62.77,587.75 64.55,585.34 67.84,580.32 69.34,577.72 72.06,572.38 74.45,566.88 77.55,558.43 80.23,549.83 88.43,520.98 90.24,515.26 93.23,506.77 96.62,498.43 100.48,490.31 104.86,482.45 108.1,477.4 113.45,470.16 119.42,463.44 121.56,461.33 126.08,457.38 130.91,453.83 133.45,452.23 138.69,449.31 144.16,446.85 149.9,445.12 152.84,444.57 155.83,444.24 158.82,444.14 161.82,444.27 164.8,444.63 167.74,445.21 170.63,446 176.23,448.16 178.92,449.49 184.05,452.58 188.87,456.15 191.16,458.09 195.51,462.22 201.48,468.96 206.81,476.2 211.55,483.85 214.39,489.13 217,494.54 220.51,502.82 222.61,508.44 225.47,516.98 233.79,545.8 236.45,554.4 239.5,562.86 243.11,571.1 245.93,576.4 247.48,578.97 250.85,583.93 252.67,586.31 256.58,590.86 258.66,593.03 265.31,599.08" fill="none" stroke="#476227" stroke-width="1"/><polyline id="SvgjsPolyline9424" points="436.6,598.22 443.13,592.03 445.17,589.83 449.01,585.22 452.51,580.35 454.12,577.82 455.65,575.24 458.44,569.93 462.06,561.69 465.13,553.23 467.87,544.66 474.8,521.68 478.71,510.34 480.91,504.76 483.32,499.26 485.95,493.87 488.85,488.61 492.02,483.52 495.49,478.63 499.28,473.98 503.4,469.62 507.86,465.62 512.69,462.06 517.88,459.05 520.6,457.79 523.4,456.72 526.28,455.86 529.21,455.22 532.18,454.81 535.17,454.65 538.17,454.74 541.15,455.07 544.09,455.64 546.99,456.44 549.81,457.45 552.56,458.65 555.22,460.03 560.28,463.25 562.68,465.05 567.2,469 571.37,473.31 575.21,477.92 577,480.32 580.37,485.29 584.87,493.08 588.79,501.18 592.21,509.5 596.17,520.83 599.69,532.3" fill="none" stroke="#476227" stroke-width="1"/><polyline id="SvgjsPolyline9425" points="429.71,598.75 434.05,594.61 436.1,592.42 438.07,590.16 441.74,585.42 443.44,582.94 446.53,577.8 450.5,569.73 452.76,564.17 455.7,555.66 458.29,547.05 464.8,523.95 467.48,515.36 469.44,509.68 473.86,498.53 476.38,493.09 480.59,485.13 485.36,477.5 488.87,472.63 492.65,467.98 496.72,463.57 501.09,459.46 505.77,455.71 510.78,452.42 516.04,449.53 521.53,447.12 524.38,446.18 527.29,445.44 530.24,444.92 533.22,444.61 536.22,444.55 539.22,444.71 542.19,445.1 545.13,445.71 548.01,446.53 550.83,447.55 556.26,450.1 561.38,453.23 566.17,456.84 568.44,458.79 572.76,462.95 578.69,469.72 583.98,477 588.67,484.68 592.8,492.67 596.43,500.91 599.62,509.32" fill="none" stroke="#476227" stroke-width="1"/><polyline id="SvgjsPolyline9426" points="0.9,392.3 5.72,388.72 10.32,384.88 14.75,380.82 21.09,374.44 31.08,363.25 53.91,335.42 63.72,324.08 67.8,319.67 74.12,313.27 80.74,307.17 85.33,303.31 92.49,297.86 99.98,292.87 105.16,289.84 113.18,285.77 118.69,283.38 127.16,280.35 135.85,278.01 141.73,276.86 150.66,275.76 156.65,275.47 162.65,275.53 171.62,276.28 180.49,277.81 189.19,280.07 197.69,283.03 205.93,286.64 211.27,289.39 216.47,292.38 224,297.31 231.19,302.71 238.05,308.53 246.72,316.83 254.91,325.6 260.81,332.4 283.63,360.24 291.47,369.33 299.69,378.06 304.01,382.23 308.49,386.22 313.16,389.98 318.06,393.45 323.19,396.55 328.58,399.19 331.36,400.3 337.1,402.03 343.02,403.02 346.01,403.2 349.01,403.17 352,402.93 354.97,402.49 357.9,401.85 363.61,400.03 369.09,397.59 374.32,394.65 379.3,391.3 384.05,387.64 388.6,383.73 392.98,379.63 401.29,370.98 411.11,359.64 430.09,336.4 435.9,329.53 443.91,320.6 452.36,312.08 456.77,308.02 463.66,302.23 468.44,298.6 473.37,295.18 478.44,291.98 483.66,289.02 489.01,286.31 494.49,283.87 502.93,280.74 508.68,279.04 514.52,277.65 520.42,276.59 526.38,275.87 532.37,275.5 541.37,275.61 547.34,276.13 553.28,276.99 559.16,278.19 564.96,279.71 573.49,282.57 581.77,286.09 587.13,288.78 594.93,293.28 599.94,296.58" fill="none" stroke="#476227" stroke-width="1"/><polyline id="SvgjsPolyline9427" points="72.44,598.23 79.03,592.1 85.06,585.43 90.43,578.2 95.09,570.51 97.82,565.17 101.47,556.94 104.71,548.55 111.82,528.79 116.27,517.64 118.76,512.19 121.51,506.85 122.99,504.24 126.21,499.18 129.81,494.38 133.84,489.94 136.02,487.88 140.76,484.21 143.31,482.63 145.98,481.26 148.76,480.13 151.63,479.26 154.57,478.69 157.55,478.41 160.55,478.46 163.53,478.82 166.45,479.48 169.3,480.43 172.05,481.63 174.68,483.06 177.2,484.69 181.87,488.45 186.06,492.75 189.8,497.43 191.52,499.89 194.69,504.98 197.54,510.26 200.12,515.68 204.68,526.78 211.8,546.53 214.99,554.95 218.52,563.23 222.58,571.25 227.31,578.91 232.74,586.08 238.83,592.7 245.47,598.78" fill="none" stroke="#476227" stroke-width="1"/><polyline id="SvgjsPolyline9428" points="66.64,599.12 73.08,592.84 75.09,590.61 78.87,585.95 82.31,581.04 86.82,573.25 90.62,565.1 93.88,556.71 96.79,548.2 103.23,528.21 106.24,519.73 108.44,514.14 110.83,508.64 113.47,503.25 116.38,498.01 121.19,490.4 124.76,485.58 128.7,481.06 133.04,476.92 137.8,473.27 142.98,470.24 145.71,469.01 148.53,468 151.43,467.22 154.38,466.7 157.37,466.44 160.37,466.47 163.35,466.76 166.3,467.33 169.18,468.15 171.99,469.2 174.71,470.46 177.33,471.92 182.27,475.33 186.78,479.27 190.89,483.64 194.62,488.35 197.98,493.31 201.03,498.48 203.78,503.81 207.45,512.03 211.67,523.26 219.13,546.07 222.07,554.57 225.38,562.94 229.23,571.07 230.66,573.71 233.78,578.84 235.46,581.32 239.08,586.1 241.01,588.4 245.1,592.8 251.7,598.9" fill="none" stroke="#476227" stroke-width="1"/><polyline id="SvgjsPolyline9429" points="449.67,598.3 456.27,592.19 462.32,585.52 467.7,578.32 472.38,570.63 476.41,562.58 479.92,554.3 489.21,528.95 493.68,517.82 496.19,512.37 498.95,507.04 502.02,501.89 503.69,499.39 507.31,494.61 511.37,490.2 515.91,486.27 518.36,484.54 520.93,483 523.62,481.68 526.42,480.6 529.31,479.79 532.26,479.28 535.25,479.08 538.25,479.2 541.22,479.64 544.12,480.38 546.95,481.39 549.66,482.66 552.27,484.15 554.75,485.84 559.34,489.69 563.45,494.05 567.13,498.79 568.82,501.27 571.93,506.4 574.73,511.71 577.26,517.15 581.77,528.27 588.92,548.01 592.17,556.41 595.79,564.64 599.97,572.61" fill="none" stroke="#476227" stroke-width="1"/><polyline id="SvgjsPolyline9430" points="443.83,599.18 450.28,592.9 452.29,590.68 456.08,586.03 459.53,581.12 461.12,578.58 465.4,570.66 467.87,565.2 471.14,556.81 474.06,548.3 480.53,528.32 484.62,517.04 488.15,508.76 490.8,503.38 493.72,498.14 496.88,493.04 500.29,488.11 504.07,483.44 508.23,479.12 510.46,477.12 515.25,473.51 517.8,471.93 520.45,470.53 523.2,469.33 526.03,468.35 528.94,467.61 531.9,467.14 534.89,466.93 537.89,467 540.87,467.35 543.81,467.96 546.68,468.83 549.47,469.92 552.17,471.23 557.27,474.39 561.94,478.14 564.12,480.2 568.18,484.62 571.86,489.36 576.72,496.93 579.58,502.2 583.37,510.37 585.62,515.93 588.7,524.38 596.17,547.19 599.16,555.68" fill="none" stroke="#476227" stroke-width="1"/><polyline id="SvgjsPolyline9431" points="0.1,381.61 4.96,378.09 9.6,374.3 14.07,370.29 18.37,366.11 22.55,361.81 28.64,355.18 50.24,330.23 60.35,319.15 64.54,314.85 71.03,308.62 77.79,302.69 82.47,298.93 89.73,293.62 94.75,290.32 102.52,285.78 110.57,281.76 118.87,278.3 127.41,275.45 136.13,273.25 142.03,272.17 150.97,271.15 159.97,270.88 168.95,271.37 174.9,272.12 180.81,273.18 186.65,274.56 192.41,276.23 200.88,279.27 209.11,282.9 214.45,285.63 219.67,288.59 227.25,293.44 234.53,298.73 241.51,304.41 250.35,312.52 256.69,318.91 264.82,327.74 284.43,350.43 292.43,359.38 300.79,367.99 305.16,372.1 309.7,376.02 314.44,379.7 319.4,383.08 321.97,384.63 327.29,387.38 332.87,389.59 335.74,390.45 341.62,391.62 344.61,391.9 347.61,391.97 350.6,391.83 353.58,391.48 356.53,390.93 362.29,389.28 365.09,388.2 370.51,385.61 375.67,382.56 380.59,379.13 385.29,375.4 389.8,371.45 398.37,363.05 408.48,351.96 426.1,331.51 434.11,322.58 442.44,313.94 451.21,305.75 458.11,299.98 462.89,296.34 467.79,292.89 472.84,289.64 478.01,286.61 483.31,283.8 488.74,281.23 494.27,278.91 502.76,275.94 508.54,274.31 514.39,272.99 520.3,271.97 526.26,271.28 535.25,270.87 541.25,271.02 547.23,271.51 553.17,272.32 559.06,273.45 564.89,274.89 573.47,277.6 579.07,279.75 584.56,282.17 589.94,284.83 597.77,289.26" fill="none" stroke="#476227" stroke-width="1"/><polyline id="SvgjsPolyline9432" points="85.47,598.47 92.3,592.61 98.72,586.31 104.65,579.55 108.32,574.79 113.38,567.35 116.49,562.23 120.89,554.37 127.95,541.14 132.44,533.34 135.73,528.33 139.39,523.57 143.56,519.26 145.88,517.36 148.37,515.69 151.03,514.32 153.86,513.33 156.81,512.78 159.8,512.73 162.77,513.17 165.63,514.07 168.33,515.37 170.86,516.98 173.21,518.84 175.4,520.89 177.44,523.09 181.15,527.8 184.47,532.79 188.99,540.57 200.44,561.67 205.16,569.33 208.56,574.27 214.11,581.36 220.17,588 226.71,594.19 233.63,599.94" fill="none" stroke="#476227" stroke-width="1"/><polyline id="SvgjsPolyline9433" points="81.08,598.08 87.62,591.9 91.69,587.49 97.28,580.44 102.22,572.92 105.17,567.69 109.16,559.63 112.81,551.4 121.01,532.07 124.83,523.92 129.16,516.03 132.45,511.02 134.25,508.62 138.21,504.12 140.39,502.06 142.72,500.16 145.19,498.47 147.81,497.01 150.57,495.83 153.45,494.99 156.41,494.5 159.4,494.41 162.39,494.71 165.31,495.38 168.13,496.4 170.82,497.73 173.36,499.31 175.76,501.12 178.01,503.1 180.12,505.23 183.95,509.85 185.69,512.29 188.89,517.36 193.11,525.31 196.87,533.49 206.32,555.55 210.24,563.65 214.64,571.5 219.65,578.97 225.28,585.98 231.5,592.49 238.21,598.49" fill="none" stroke="#476227" stroke-width="1"/><polyline id="SvgjsPolyline9434" points="462.7,598.57 469.54,592.73 475.98,586.44 480.01,582 485.63,574.97 490.73,567.56 493.87,562.45 506.94,538.82 510.03,533.68 513.37,528.7 517.1,524 519.15,521.81 521.35,519.77 523.72,517.93 526.26,516.34 528.98,515.08 531.85,514.23 534.82,513.84 537.82,513.96 540.75,514.57 543.56,515.63 546.2,517.05 548.66,518.77 550.94,520.71 555.06,525.07 558.68,529.85 561.96,534.87 566.45,542.67 576.56,561.08 579.66,566.21 582.95,571.23 586.46,576.1 590.2,580.79 594.17,585.28 598.36,589.58" fill="none" stroke="#476227" stroke-width="1"/><polyline id="SvgjsPolyline9435" points="458.36,598.18 464.92,592.02 470.95,585.34 476.35,578.15 479.59,573.1 482.57,567.89 486.6,559.85 490.29,551.64 497.36,535.09 501.11,526.9 505.29,518.94 508.45,513.83 510.17,511.38 513.94,506.71 516.02,504.55 518.23,502.53 520.6,500.69 523.11,499.05 525.78,497.68 528.58,496.6 531.48,495.87 534.46,495.51 537.46,495.56 540.42,496 543.31,496.81 546.08,497.96 548.71,499.4 551.19,501.09 553.52,502.97 555.71,505.03 557.75,507.22 561.47,511.93 564.77,516.94 569.1,524.82 572.94,532.96 582.48,554.98 585.05,560.41 587.8,565.74 590.79,570.94 594.03,575.99 599.43,583.18" fill="none" stroke="#476227" stroke-width="1"/><polyline id="SvgjsPolyline9436" points="1.57,369.21 6.38,365.63 11,361.8 19.78,353.62 28.13,345.01 50.56,320.8 61.2,310.22 65.61,306.16 72.44,300.3 81.96,293 89.42,287.97 94.55,284.85 102.45,280.55 110.6,276.74 118.98,273.46 127.56,270.74 133.38,269.27 142.22,267.62 151.17,266.66 160.16,266.41 169.15,266.9 175.1,267.63 181.01,268.66 189.76,270.76 195.5,272.51 201.16,274.51 209.46,277.98 214.86,280.58 220.16,283.4 227.89,288.01 235.35,293.04 242.54,298.46 251.7,306.21 258.28,312.34 266.74,320.85 289.17,345.06 297.53,353.67 304.06,359.86 310.93,365.67 315.74,369.25 320.78,372.51 326.05,375.36 328.79,376.6 334.43,378.64 337.33,379.4 343.25,380.35 346.24,380.52 349.24,380.47 352.23,380.22 355.2,379.76 358.12,379.11 363.83,377.27 366.6,376.11 371.95,373.4 374.53,371.87 379.52,368.53 386.6,362.99 391.1,359.02 395.46,354.9 403.87,346.34 424.23,324.3 430.46,317.81 439.04,309.42 448.02,301.47 452.68,297.69 459.91,292.32 464.88,288.96 469.96,285.78 475.17,282.8 480.49,280.03 485.92,277.47 491.45,275.15 499.92,272.12 505.68,270.43 511.51,269.02 517.41,267.9 526.33,266.79 532.32,266.45 538.32,266.44 544.32,266.75 550.28,267.37 556.21,268.31 562.08,269.55 570.75,271.95 576.43,273.87 584.78,277.23 590.22,279.77 598.17,283.97" fill="none" stroke="#476227" stroke-width="1"/><polyline id="SvgjsPolyline9437" points="98.42,599.3 105.68,593.98 112.76,588.42 119.66,582.65 135.51,568.88 140.22,565.16 142.67,563.43 145.2,561.82 147.84,560.39 150.58,559.18 153.44,558.27 156.39,557.74 159.39,557.63 162.37,557.96 165.27,558.69 168.08,559.76 170.77,561.09 175.83,564.29 182.91,569.85 196.47,581.68 203.35,587.48 210.4,593.08 217.63,598.44" fill="none" stroke="#476227" stroke-width="1"/><polyline id="SvgjsPolyline9438" points="92.84,598.7 99.78,592.97 104.22,588.94 108.51,584.74 112.62,580.37 116.57,575.86 120.37,571.21 136.87,549.84 140.83,545.34 142.95,543.22 145.19,541.22 147.58,539.41 150.13,537.84 152.87,536.6 155.76,535.81 158.74,535.54 161.72,535.85 164.6,536.68 167.32,537.94 169.86,539.53 172.23,541.36 174.46,543.37 176.57,545.5 180.53,550.01 195.2,569 202.94,578.17 209.15,584.68 213.5,588.82 218,592.79 224.99,598.45" fill="none" stroke="#476227" stroke-width="1"/><polyline id="SvgjsPolyline9439" points="89.6,598.56 96.42,592.68 100.75,588.53 106.87,581.94 110.69,577.31 114.3,572.52 117.72,567.59 132.15,544.77 135.63,539.88 139.46,535.27 141.57,533.13 143.84,531.17 148.74,527.72 151.38,526.3 154.2,525.27 157.14,524.72 160.14,524.72 163.08,525.27 165.89,526.31 168.53,527.73 170.98,529.46 173.26,531.41 175.39,533.52 179.28,538.09 182.82,542.93 197.53,565.57 202.79,572.88 206.52,577.57 210.46,582.1 216.74,588.54 221.15,592.61 228.06,598.38" fill="none" stroke="#476227" stroke-width="1"/><polyline id="SvgjsPolyline9440" points="80.9,599.86 87.62,593.87 93.86,587.39 99.52,580.4 104.56,572.94 107.59,567.77 111.72,559.77 121.69,537.94 125.66,529.86 130.14,522.06 133.57,517.14 137.48,512.6 139.65,510.53 141.98,508.64 144.48,506.98 147.15,505.61 149.96,504.58 152.89,503.95 158.88,503.58 161.86,503.84 164.78,504.53 167.58,505.61 170.23,507.01 172.71,508.69 175.03,510.59 177.2,512.67 181.11,517.21 184.57,522.11 189.11,529.88 191.86,535.21 199.58,551.47 203.58,559.53 207.94,567.4 211.12,572.49 216.37,579.8 222.2,586.66 228.55,593.02 235.35,598.92" fill="none" stroke="#476227" stroke-width="1"/><polyline id="SvgjsPolyline9441" points="475.64,599.43 482.92,594.13 490.02,588.61 512.96,569.27 517.73,565.64 520.22,563.96 522.79,562.41 525.46,561.05 528.24,559.93 531.13,559.12 534.09,558.7 537.09,558.69 540.06,559.11 542.95,559.91 545.73,561.03 548.41,562.38 553.46,565.61 560.56,571.14 574.23,582.85 581.18,588.57 588.28,594.1 595.56,599.4" fill="none" stroke="#476227" stroke-width="1"/><polyline id="SvgjsPolyline9442" points="470.02,598.8 474.69,595.04 481.43,589.08 485.74,584.9 489.87,580.55 497.68,571.44 512.47,552.54 516.37,547.99 520.6,543.73 522.89,541.79 525.33,540.05 527.94,538.58 530.73,537.47 533.66,536.83 536.65,536.74 539.61,537.22 542.44,538.19 545.11,539.56 547.6,541.22 552.14,545.14 554.23,547.29 558.17,551.82 571.13,568.34 578.87,577.5 582.97,581.89 587.22,586.12 591.63,590.19 598.51,595.99" fill="none" stroke="#476227" stroke-width="1"/><polyline id="SvgjsPolyline9443" points="466.71,598.66 471.31,594.8 477.89,588.67 484.03,582.1 487.87,577.48 491.51,572.71 494.95,567.8 509.53,545.08 513.05,540.22 516.95,535.66 519.09,533.56 521.4,531.64 526.39,528.33 529.08,526.99 531.93,526.07 534.9,525.66 537.89,525.8 540.8,526.49 543.57,527.63 546.16,529.15 548.56,530.94 550.8,532.94 552.9,535.09 556.74,539.69 560.26,544.55 573.42,564.62 580.5,574.31 584.31,578.94 590.4,585.57 594.69,589.76 599.16,593.76" fill="none" stroke="#476227" stroke-width="1"/><polyline id="SvgjsPolyline9444" points="458.61,599.53 465.31,593.53 471.53,587.03 477.18,580.02 480.6,575.09 483.75,569.99 488.04,562.08 491.94,553.97 499.43,537.6 503.46,529.56 508.05,521.82 511.58,516.96 515.61,512.52 517.85,510.53 520.25,508.74 522.83,507.21 525.57,505.99 528.45,505.15 531.42,504.74 537.41,504.83 540.37,505.33 543.22,506.24 545.94,507.51 548.5,509.08 550.88,510.89 553.11,512.9 557.13,517.34 560.67,522.19 565.31,529.9 569.44,537.89 578.59,556.79 581.38,562.11 584.35,567.32 587.54,572.4 590.99,577.31 594.69,582.03 598.64,586.54" fill="none" stroke="#476227" stroke-width="1"/><polyline id="SvgjsPolyline9445" points="0.77,358.52 8.03,353.2 12.65,349.38 17.14,345.39 25.82,337.11 47.03,315.9 58.01,305.68 62.55,301.75 69.54,296.09 74.33,292.48 81.72,287.34 89.36,282.58 97.23,278.21 105.32,274.27 113.62,270.8 122.12,267.84 127.88,266.18 136.65,264.17 142.57,263.19 148.53,262.51 154.52,262.13 163.52,262.16 172.49,262.9 181.37,264.32 190.13,266.38 195.88,268.08 201.56,270.03 209.91,273.37 215.37,275.87 220.73,278.57 228.57,282.98 236.18,287.78 243.55,292.94 253.01,300.33 259.83,306.2 268.63,314.36 292,337.66 298.49,343.89 305.2,349.89 312.23,355.51 317.14,358.95 322.27,362.06 324.92,363.46 330.41,365.88 336.13,367.7 339.05,368.34 342.02,368.8 345.01,369.05 348.01,369.09 351,368.93 353.98,368.55 356.92,367.99 362.68,366.31 368.21,364 370.89,362.64 373.51,361.18 378.57,357.97 385.79,352.59 392.63,346.75 401.37,338.52 420.44,319.41 429.08,311.08 438.01,303.06 447.31,295.49 452.12,291.9 459.54,286.8 469.8,280.59 477.77,276.41 483.21,273.87 488.73,271.54 494.35,269.43 500.05,267.55 508.74,265.21 514.61,263.99 520.54,263.06 526.5,262.42 532.49,262.1 541.49,262.21 547.47,262.68 553.42,263.45 559.33,264.52 568.07,266.64 573.81,268.38 579.47,270.37 585.05,272.58 590.54,275.01 598.58,279.03" fill="none" stroke="#476227" stroke-width="1"/><polyline id="SvgjsPolyline9446" points="113.61,599.31 124.07,593.43 129.38,590.63 134.77,588 140.29,585.66 145.97,583.73 148.88,582.99 151.82,582.41 154.8,582.03 157.79,581.87 160.79,581.91 166.74,582.64 172.56,584.11 178.2,586.14 183.69,588.56 189.06,591.24 204.8,599.97" fill="none" stroke="#476227" stroke-width="1"/><polyline id="SvgjsPolyline9447" points="105.65,598.34 127.82,582.94 132.85,579.66 138.03,576.64 140.71,575.29 146.21,572.89 149.03,571.88 151.92,571.08 154.87,570.54 157.86,570.31 160.86,570.38 163.84,570.77 166.76,571.44 169.62,572.35 172.4,573.46 177.77,576.13 182.93,579.19 187.96,582.46 212.74,599.37" fill="none" stroke="#476227" stroke-width="1"/><polyline id="SvgjsPolyline9448" points="95.51,598.88 104.85,591.35 113.7,583.25 120.01,576.83 134.26,561.4 138.55,557.21 140.82,555.25 143.2,553.43 145.72,551.8 148.4,550.46 154.07,548.52 157.02,547.99 160.02,547.97 162.98,548.46 165.82,549.41 168.52,550.7 171.08,552.27 175.82,555.94 182.34,562.15 194.76,575.17 203.32,583.58 212.33,591.5 221.79,598.89" fill="none" stroke="#476227" stroke-width="1"/><polyline id="SvgjsPolyline9449" points="490.83,599.5 498.68,595.1 506.64,590.9 512.05,588.32 517.6,586.02 520.43,585.02 526.21,583.44 532.14,582.55 535.14,582.41 538.13,582.48 541.12,582.76 544.08,583.24 547.01,583.91 552.73,585.69 558.3,587.92 563.73,590.47 571.71,594.64 579.57,599.02" fill="none" stroke="#476227" stroke-width="1"/><polyline id="SvgjsPolyline9450" points="482.8,598.53 505.07,583.26 510.13,580.04 515.35,577.09 518.05,575.78 523.58,573.47 526.42,572.5 529.33,571.75 532.29,571.27 535.28,571.08 538.28,571.2 541.24,571.62 544.16,572.31 547.02,573.23 552.52,575.62 557.78,578.49 562.89,581.65 587.77,598.4" fill="none" stroke="#476227" stroke-width="1"/><polyline id="SvgjsPolyline9451" points="472.92,598.81 482.27,591.29 488.97,585.28 497.48,576.83 511.89,561.55 516.26,557.45 518.58,555.55 521.02,553.8 523.61,552.28 526.35,551.07 532.12,549.46 535.1,549.11 538.09,549.28 541.02,549.94 543.82,551 546.48,552.39 551.4,555.81 553.7,557.74 558.09,561.82 572.78,576.83 579.26,583.08 588.27,591 597.72,598.4" fill="none" stroke="#476227" stroke-width="1"/><polyline id="SvgjsPolyline9452" points="0.2,347.8 7.61,342.69 16.95,335.17 25.92,327.2 43.61,310.97 50.37,305.03 57.27,299.26 64.36,293.72 69.2,290.17 76.63,285.09 81.7,281.88 89.48,277.36 97.46,273.2 105.63,269.44 114,266.11 122.53,263.26 128.31,261.66 137.1,259.72 143.03,258.78 151.98,257.92 160.98,257.75 169.96,258.29 175.91,259.02 181.83,260.04 190.59,262.09 199.2,264.69 207.65,267.79 218.63,272.63 226.64,276.73 237,282.78 244.53,287.7 254.25,294.75 261.3,300.34 270.44,308.12 292.59,328.34 301.6,336.27 308.61,341.91 315.96,347.1 318.5,348.7 323.74,351.61 329.21,354.09 332.03,355.12 337.81,356.7 340.76,357.22 343.74,357.55 346.74,357.68 349.74,357.61 352.73,357.33 355.69,356.85 361.49,355.36 367.1,353.23 369.82,351.96 375.09,349.09 377.64,347.52 385.02,342.37 392.06,336.76 401.09,328.86 418.77,312.62 427.76,304.68 437.02,297.06 446.63,289.86 456.59,283.18 461.72,280.06 469.58,275.68 474.93,272.96 483.12,269.23 488.68,266.98 494.32,264.93 500.03,263.11 505.82,261.52 511.67,260.19 520.54,258.71 526.51,258.09 532.5,257.77 538.5,257.77 544.49,258.07 550.46,258.68 556.39,259.59 562.27,260.77 570.98,263.04 576.7,264.86 585.14,267.99 590.66,270.33 598.79,274.19" fill="none" stroke="#476227" stroke-width="1"/><polyline id="SvgjsPolyline9453" points="130.65,599.65 139.22,596.88 145.04,595.43 150.95,594.43 156.93,593.98 159.93,593.97 165.92,594.39 171.84,595.35 177.66,596.77 186.21,599.58" fill="none" stroke="#476227" stroke-width="1"/><polyline id="SvgjsPolyline9454" points="507.86,599.93 516.43,597.21 522.26,595.79 528.18,594.83 534.17,594.41 540.16,594.55 546.12,595.27 551.99,596.47 560.62,599.03" fill="none" stroke="#476227" stroke-width="1"/><polyline id="SvgjsPolyline9455" points="2.18,335.43 9.66,330.42 16.85,325.01 44.67,302.16 56.53,292.99 68.82,284.39 76.43,279.57 81.59,276.52 89.49,272.2 97.55,268.22 105.79,264.59 114.19,261.36 122.75,258.58 131.46,256.31 140.29,254.61 146.24,253.82 155.22,253.21 164.21,253.29 173.18,254.07 182.06,255.51 190.82,257.55 199.45,260.12 207.92,263.17 218.95,267.87 227.04,271.82 237.55,277.61 245.22,282.31 255.19,288.99 262.47,294.29 269.6,299.78 299.76,324.5 306.93,329.94 314.37,334.99 322.19,339.45 327.65,341.94 330.45,343 336.21,344.69 339.15,345.28 345.11,345.93 351.1,345.8 354.08,345.45 359.95,344.2 362.82,343.34 368.41,341.17 371.13,339.91 376.42,337.08 384.02,332.26 391.3,326.97 398.37,321.39 416.84,306.08 426.2,298.56 438.22,289.59 448.15,282.87 453.24,279.68 461.01,275.15 468.96,270.93 474.36,268.3 482.59,264.67 488.17,262.46 493.82,260.45 499.54,258.64 505.33,257.05 511.18,255.71 517.08,254.64 523.02,253.84 529,253.35 535,253.16 541,253.28 546.98,253.72 552.94,254.45 558.85,255.47 564.71,256.76 570.51,258.29 579.08,261.02 584.71,263.09 593.02,266.54 598.47,269.06" fill="none" stroke="#476227" stroke-width="1"/><polyline id="SvgjsPolyline9456" points="2.07,324.68 9.75,320 17.19,314.93 43.75,295.35 58.52,285.06 71.2,277.06 76.38,274.03 84.28,269.71 92.31,265.66 100.49,261.9 108.82,258.49 117.29,255.45 125.91,252.86 131.73,251.41 140.56,249.71 146.51,248.93 152.49,248.44 161.49,248.31 170.47,248.9 179.38,250.16 188.18,252.03 196.84,254.45 205.37,257.33 216.51,261.79 224.69,265.53 235.38,270.99 245.82,276.91 253.48,281.64 261,286.57 268.4,291.69 294.97,311.26 302.3,316.49 309.8,321.46 314.95,324.54 322.96,328.64 325.71,329.83 331.36,331.85 337.17,333.32 340.13,333.82 346.11,334.3 352.1,334.06 358.02,333.13 360.94,332.41 366.64,330.57 369.43,329.46 374.87,326.92 382.72,322.53 390.28,317.64 397.63,312.46 416.91,298.16 429.1,289.42 439.06,282.73 451.85,274.9 465.04,267.76 475.88,262.61 484.18,259.12 489.79,257 495.47,255.06 501.21,253.32 507.01,251.81 512.87,250.53 518.79,249.52 524.74,248.8 530.73,248.38 536.73,248.28 542.72,248.5 548.7,249.03 554.64,249.86 560.54,250.97 566.38,252.34 572.16,253.94 577.88,255.76 583.53,257.77 589.12,259.95 597.38,263.52" fill="none" stroke="#476227" stroke-width="1"/><polyline id="SvgjsPolyline9457" points="0.02,315.39 7.99,311.21 15.72,306.61 23.31,301.76 45.81,286.85 61.05,277.27 74.05,269.78 87.35,262.85 95.48,259 103.74,255.42 112.13,252.15 117.79,250.18 126.4,247.57 132.22,246.1 141.05,244.38 147,243.59 152.98,243.12 161.98,243.03 167.97,243.37 176.89,244.49 185.72,246.26 194.41,248.59 202.97,251.38 211.39,254.55 219.68,258.06 230.54,263.16 238.55,267.26 249.05,273.06 259.37,279.19 266.99,283.97 299.58,305.39 307.27,310.07 315.17,314.37 323.36,318.1 329.01,320.12 331.89,320.97 334.8,321.68 340.72,322.68 346.7,323.05 352.69,322.77 358.62,321.86 361.54,321.18 367.28,319.45 370.1,318.41 375.62,316.05 383.63,311.96 391.4,307.42 399,302.6 421.51,287.69 431.61,281.22 444.47,273.48 454.96,267.66 468.35,260.91 476.55,257.19 482.08,254.87 493.32,250.67 499.03,248.83 504.8,247.19 510.63,245.78 516.52,244.63 522.46,243.77 528.43,243.21 537.43,242.99 543.42,243.25 549.39,243.84 555.32,244.74 561.2,245.92 567.03,247.35 572.8,249.01 578.5,250.87 586.94,253.98 598,258.65" fill="none" stroke="#476227" stroke-width="1"/><polyline id="SvgjsPolyline9458" points="1.06,304.69 9.2,300.85 17.15,296.63 27.55,290.65 53.35,275.35 66.41,267.97 82.35,259.6 95.89,253.15 104.15,249.57 112.51,246.25 123.87,242.39 129.66,240.82 135.52,239.54 141.44,238.54 147.4,237.83 153.38,237.42 159.38,237.31 168.37,237.7 174.34,238.34 183.21,239.83 189.05,241.19 194.82,242.82 203.34,245.73 211.73,249 222.73,253.78 233.57,258.94 244.24,264.41 262.61,274.6 298.8,295.9 306.72,300.17 312.1,302.83 320.36,306.4 328.89,309.26 334.73,310.65 337.68,311.16 343.65,311.77 346.65,311.87 352.64,311.62 355.62,311.29 361.53,310.23 364.44,309.51 370.18,307.76 378.55,304.47 386.68,300.6 394.62,296.36 436.02,272.09 446.52,266.27 459.83,259.36 473.38,252.93 484.42,248.23 495.67,244.05 501.39,242.23 507.18,240.69 513.05,239.43 518.97,238.46 524.93,237.78 530.92,237.4 536.92,237.32 542.91,237.53 551.87,238.41 560.73,239.94 566.57,241.33 572.34,242.99 583.65,246.98 597.49,252.76" fill="none" stroke="#476227" stroke-width="1"/><polyline id="SvgjsPolyline9459" points="0.01,295.23 8.36,291.86 19.22,286.76 29.88,281.25 58.89,265.53 74.82,257.16 90.95,249.15 104.58,242.9 110.14,240.66 115.8,238.64 121.53,236.87 127.33,235.34 136.14,233.53 142.08,232.65 148.05,232.04 154.04,231.7 163.03,231.69 169.02,232.03 174.99,232.63 180.93,233.5 189.75,235.3 198.43,237.67 204.12,239.56 209.73,241.68 215.25,244.03 226.14,249.07 236.92,254.36 255.56,264.03 289.87,282.57 300.56,288 308.73,291.79 317.07,295.17 325.62,297.96 331.45,299.4 334.39,299.96 337.36,300.42 343.33,300.98 349.33,301.05 352.32,300.89 355.31,300.62 361.24,299.71 369.98,297.57 375.68,295.71 381.29,293.57 389.54,289.98 397.63,286.05 408.27,280.5 432,267.62 447.9,259.18 461.28,252.39 472.09,247.19 483.04,242.29 491.46,239.09 500.05,236.44 508.81,234.35 514.71,233.27 520.65,232.46 529.62,231.75 535.62,231.62 541.62,231.75 547.61,232.16 553.57,232.84 559.49,233.78 565.37,234.98 571.19,236.44 576.94,238.15 582.61,240.1 588.2,242.29 599.15,247.19" fill="none" stroke="#476227" stroke-width="1"/><polyline id="SvgjsPolyline9460" points="2.12,284.68 13.34,280.44 21.6,276.85 29.75,273.03 43.18,266.36 88.48,242.93 96.62,239.09 102.15,236.77 107.77,234.65 113.45,232.74 119.21,231.05 125.02,229.58 130.89,228.33 136.81,227.33 142.76,226.56 148.73,226.03 157.73,225.7 163.73,225.78 169.72,226.12 175.69,226.69 181.63,227.51 190.47,229.18 196.31,230.58 204.95,233.11 213.43,236.11 218.98,238.37 224.46,240.83 229.85,243.47 280.51,269.59 294.02,276.1 305.02,280.89 310.61,283.07 316.28,285.05 324.92,287.56 330.78,288.85 336.7,289.77 339.69,290.09 345.68,290.41 351.68,290.29 354.67,290.08 363.58,288.83 369.43,287.53 375.21,285.92 380.91,284.05 386.54,281.96 397.59,277.3 411.15,270.88 427.21,262.75 464.5,243.42 472.61,239.54 480.92,236.08 489.4,233.07 498.04,230.56 506.81,228.54 512.72,227.49 518.67,226.68 527.63,225.91 533.63,225.71 539.63,225.75 545.62,226.04 551.6,226.57 557.55,227.34 563.46,228.35 569.33,229.6 575.14,231.08 580.9,232.77 586.58,234.69 592.19,236.81 597.73,239.14" fill="none" stroke="#476227" stroke-width="1"/><polyline id="SvgjsPolyline9461" points="1.89,275.16 7.61,273.35 16.07,270.27 24.4,266.87 32.62,263.22 40.77,259.38 51.51,254.05 80.72,238.68 88.88,234.89 97.2,231.46 102.83,229.39 111.4,226.63 117.18,225.03 123.01,223.64 128.89,222.44 134.81,221.46 140.76,220.69 146.74,220.14 152.73,219.81 161.73,219.73 170.71,220.15 176.69,220.71 185.6,221.95 191.5,223.05 200.27,225.08 206.05,226.69 217.43,230.47 225.8,233.78 231.29,236.2 239.4,240.11 260.58,251.39 273.97,258.16 287.54,264.54 301.37,270.34 312.68,274.34 318.44,276.04 324.26,277.49 330.14,278.66 336.08,279.51 345.06,280.12 354.05,279.89 360.02,279.28 365.94,278.33 371.81,277.07 377.61,275.53 383.34,273.77 389.01,271.8 394.62,269.66 402.93,266.21 416.56,259.96 430,253.29 456.52,239.27 467.41,234.23 475.76,230.87 484.25,227.91 492.89,225.37 498.71,223.93 504.58,222.69 510.49,221.66 516.44,220.84 522.41,220.24 528.39,219.87 534.39,219.71 540.39,219.77 546.38,220.06 552.36,220.57 558.32,221.3 564.24,222.24 570.13,223.4 575.97,224.76 581.77,226.32 587.5,228.08 593.18,230.02 598.79,232.15" fill="none" stroke="#476227" stroke-width="1"/><polyline id="SvgjsPolyline9462" points="2.01,265.65 7.77,263.96 16.29,261.06 24.68,257.8 30.2,255.45 43.78,249.08 62.37,239.32 73.14,234.04 84.13,229.21 95.34,224.93 106.76,221.26 112.55,219.68 121.32,217.64 127.21,216.5 133.13,215.56 139.08,214.81 148.05,214.05 154.05,213.8 163.05,213.8 169.04,214.04 178.01,214.79 186.93,215.98 195.78,217.6 204.55,219.64 210.33,221.22 218.92,223.9 224.58,225.89 230.19,228.03 238.5,231.49 252.06,237.89 270.65,247.66 278.72,251.64 289.66,256.57 300.81,261 312.2,264.78 317.98,266.37 323.83,267.71 329.73,268.79 335.68,269.58 344.66,270.15 353.66,269.98 359.63,269.46 365.57,268.62 371.46,267.49 377.3,266.1 383.08,264.47 388.79,262.64 400.03,258.46 411.06,253.72 421.88,248.53 437.8,240.13 445.83,236.08 456.73,231.06 465.05,227.63 476.34,223.56 484.94,220.92 496.58,218 505.42,216.29 517.3,214.68 529.27,213.85 541.27,213.83 547.26,214.12 553.24,214.61 565.14,216.18 576.91,218.51 588.51,221.56 599.92,225.29" fill="none" stroke="#476227" stroke-width="1"/><polyline id="SvgjsPolyline9463" points="2.35,256.13 8.11,254.48 13.81,252.61 19.45,250.55 25.01,248.3 33.22,244.62 54.84,234.2 65.78,229.26 79.66,223.57 90.95,219.52 99.54,216.82 105.31,215.2 114.05,213.05 119.92,211.82 131.76,209.85 140.7,208.83 146.69,208.38 155.68,208.04 161.68,208.04 170.67,208.39 179.64,209.14 185.59,209.86 194.48,211.28 203.3,213.07 212.04,215.22 217.81,216.85 226.4,219.55 234.88,222.55 243.27,225.81 251.57,229.3 259.78,232.98 289.58,247.15 297.9,250.58 303.54,252.64 309.24,254.51 315.01,256.16 323.77,258.19 329.68,259.22 335.63,259.97 344.62,260.51 353.61,260.36 359.59,259.86 365.54,259.07 374.37,257.36 380.19,255.9 385.95,254.22 394.46,251.29 402.82,247.96 408.3,245.52 424.5,237.67 438.09,231.33 449.11,226.57 460.29,222.21 471.64,218.32 483.16,214.97 494.84,212.23 503.69,210.6 515.59,209.04 527.56,208.18 539.55,208.06 551.54,208.66 563.46,209.99 575.29,212.01 586.98,214.69 598.52,217.98" fill="none" stroke="#476227" stroke-width="1"/><polyline id="SvgjsPolyline9464" points="0.02,247.38 8.66,244.86 17.13,241.84 25.51,238.55 53.19,226.99 64.33,222.53 75.57,218.33 89.81,213.61 104.27,209.61 113.04,207.61 118.93,206.46 127.81,205.01 133.76,204.24 145.71,203.19 154.71,202.84 163.71,202.87 169.7,203.09 178.68,203.74 187.62,204.76 196.51,206.13 205.35,207.85 211.2,209.18 219.91,211.42 228.55,213.95 237.11,216.74 245.59,219.75 262.36,226.29 295.61,240.09 304.02,243.28 309.7,245.22 318.36,247.66 327.17,249.51 336.08,250.7 345.07,251.22 354.06,251.03 363.02,250.14 371.88,248.58 380.61,246.4 389.18,243.66 397.61,240.5 439.21,223.35 447.61,220.13 458.93,216.13 470.38,212.54 481.97,209.44 490.75,207.46 502.56,205.34 514.46,203.85 526.43,203 538.43,202.82 550.42,203.32 562.36,204.47 574.22,206.26 585.98,208.66 597.61,211.62" fill="none" stroke="#476227" stroke-width="1"/><polyline id="SvgjsPolyline9465" points="0.48,237.88 12.04,234.68 23.44,230.94 57.25,218.56 71.41,213.63 82.85,210 94.4,206.74 106.06,203.93 114.88,202.15 120.8,201.13 126.73,200.25 135.67,199.2 147.64,198.33 153.63,198.12 162.63,198.1 171.63,198.43 177.61,198.85 183.59,199.41 192.51,200.53 201.4,201.97 210.23,203.72 224.8,207.26 233.46,209.71 242.05,212.38 259.08,218.23 292.88,230.61 301.41,233.48 310.02,236.1 318.74,238.34 327.56,240.1 336.48,241.27 345.47,241.76 354.46,241.53 363.41,240.61 372.27,239.05 381.03,236.97 389.68,234.48 398.23,231.69 440.53,216.32 451.9,212.48 460.49,209.8 472.04,206.57 480.79,204.44 489.59,202.58 501.42,200.57 513.33,199.14 525.3,198.3 537.3,198.08 549.29,198.47 561.25,199.48 573.14,201.08 579.05,202.09 587.88,203.86 599.55,206.66" fill="none" stroke="#476227" stroke-width="1"/><polyline id="SvgjsPolyline9466" points="1.1,228.38 9.86,226.33 21.42,223.13 32.89,219.58 67.14,208.51 81.54,204.3 93.15,201.29 104.86,198.67 119.63,196.05 131.53,194.51 137.5,193.94 146.48,193.35 155.48,193.08 161.48,193.08 170.48,193.34 176.47,193.69 182.44,194.18 191.39,195.17 200.3,196.46 209.16,198.03 223.81,201.22 241.21,205.85 255.56,210.21 292.68,222.18 307.11,226.26 318.81,228.92 327.68,230.42 336.63,231.41 345.62,231.82 354.61,231.61 363.57,230.82 372.47,229.48 381.29,227.67 390.02,225.5 398.68,223.05 410.14,219.49 441.53,209.32 453.02,205.85 461.7,203.44 473.34,200.53 485.07,198.04 496.9,196 505.82,194.81 517.77,193.69 529.75,193.13 538.75,193.08 550.74,193.51 562.7,194.51 574.6,196.04 586.42,198.09 598.16,200.59" fill="none" stroke="#476227" stroke-width="1"/><polyline id="SvgjsPolyline9467" points="2.02,218.9 13.76,216.43 22.5,214.27 71.6,200.48 83.22,197.5 94.92,194.82 109.65,191.98 121.51,190.19 133.44,188.86 145.41,188.03 160.4,187.72 169.4,187.93 178.38,188.42 193.31,189.88 208.15,192.07 222.87,194.93 240.39,199.09 254.87,203 289.49,212.87 298.19,215.14 306.95,217.21 318.73,219.52 327.63,220.81 336.59,221.65 345.59,222 354.58,221.83 363.56,221.15 372.48,220.01 384.29,217.86 393.07,215.88 404.69,212.89 445.09,201.42 462.52,196.94 474.24,194.33 486.02,192.09 494.91,190.68 506.82,189.21 518.78,188.23 530.77,187.76 542.77,187.81 551.76,188.19 563.72,189.14 575.63,190.58 587.48,192.48 599.26,194.8" fill="none" stroke="#476227" stroke-width="1"/><polyline id="SvgjsPolyline9468" points="0.37,209.99 12.19,207.92 23.92,205.41 38.5,201.9 70.51,193.86 82.2,191.16 96.9,188.15 108.72,186.11 123.59,184.1 135.53,182.98 147.51,182.3 162.51,182.12 177.5,182.69 192.44,183.97 207.31,185.92 222.09,188.48 236.77,191.55 251.37,194.98 286.29,203.76 297.98,206.45 306.8,208.25 318.63,210.25 327.56,211.36 336.53,212.09 345.53,212.39 354.52,212.24 363.5,211.67 372.45,210.69 384.31,208.84 393.14,207.12 404.85,204.5 445.6,194.32 466.08,189.69 474.91,187.96 486.74,185.95 498.63,184.33 507.58,183.39 516.56,182.7 528.54,182.18 540.54,182.14 552.53,182.57 561.51,183.2 573.45,184.43 585.33,186.08 597.16,188.12" fill="none" stroke="#476227" stroke-width="1"/><polyline id="SvgjsPolyline9469" points="1.86,200.58 13.72,198.74 25.51,196.52 75.34,185.68 87.12,183.35 98.93,181.27 113.77,179.09 125.7,177.75 137.66,176.81 149.65,176.27 161.65,176.16 176.64,176.63 191.59,177.76 206.49,179.49 221.32,181.77 236.07,184.5 250.75,187.56 288.84,195.93 306.53,199.24 318.41,200.98 327.36,201.94 336.33,202.56 345.33,202.83 354.33,202.71 363.31,202.23 372.27,201.4 384.17,199.81 395.99,197.78 407.76,195.44 445.85,187.05 466.44,182.92 478.27,180.89 487.17,179.57 496.1,178.45 505.05,177.53 517.02,176.67 526.01,176.29 538.01,176.16 550.01,176.46 561.98,177.18 573.93,178.31 585.83,179.82 597.69,181.66" fill="none" stroke="#476227" stroke-width="1"/><polyline id="SvgjsPolyline9470" points="0.64,191.61 12.54,190.05 24.39,188.15 39.14,185.45 74.48,178.61 86.3,176.52 98.15,174.64 110.04,173.02 124.96,171.44 136.93,170.56 148.91,170.06 160.91,169.94 175.91,170.33 190.87,171.32 205.79,172.85 217.69,174.43 232.5,176.78 247.26,179.45 285.56,186.85 294.42,188.42 306.27,190.28 318.18,191.78 327.14,192.61 336.12,193.15 345.12,193.39 357.12,193.2 366.1,192.69 378.05,191.56 386.97,190.42 395.87,189.07 407.7,187.03 448.94,179.08 469.63,175.48 487.45,172.97 499.38,171.67 508.35,170.93 517.33,170.38 529.32,169.98 541.32,169.98 553.32,170.35 562.3,170.88 574.26,171.91 586.18,173.27 598.06,174.93" fill="none" stroke="#476227" stroke-width="1"/><polyline id="SvgjsPolyline9471" points="2.52,182.26 14.44,180.87 26.32,179.18 76.62,170.79 100.37,167.32 112.29,165.93 124.24,164.81 136.21,164.01 148.2,163.54 163.2,163.43 175.19,163.74 190.17,164.59 205.11,165.94 220,167.73 234.84,169.87 285.15,178.28 302.96,180.89 314.88,182.28 323.84,183.08 332.82,183.64 344.82,183.97 353.82,183.91 362.81,183.57 374.78,182.71 386.71,181.46 407.51,178.53 448.92,171.55 469.68,168.36 490.52,165.8 508.45,164.29 517.44,163.8 529.44,163.45 541.43,163.45 553.43,163.79 562.42,164.27 574.38,165.19 586.32,166.41 598.23,167.9" fill="none" stroke="#476227" stroke-width="1"/><polyline id="SvgjsPolyline9472" points="1.6,173.25 13.54,172.07 28.43,170.23 78.89,162.86 99.72,160.19 111.65,158.94 123.61,157.93 135.59,157.2 147.58,156.76 159.58,156.63 174.58,156.91 189.56,157.65 204.51,158.84 216.45,160.07 231.33,161.9 284.77,169.68 302.63,171.95 311.58,172.88 323.54,173.85 332.52,174.34 344.52,174.63 356.52,174.52 365.51,174.16 374.49,173.58 386.44,172.51 407.29,169.98 451.81,163.44 472.63,160.67 490.53,158.77 508.48,157.42 520.46,156.88 529.46,156.67 538.46,156.64 550.46,156.87 562.45,157.4 574.42,158.22 586.37,159.31 598.3,160.64" fill="none" stroke="#476227" stroke-width="1"/><polyline id="SvgjsPolyline9473" points="0.82,164.22 12.78,163.22 27.7,161.65 81.27,154.84 102.14,152.54 114.09,151.47 126.06,150.63 135.05,150.15 147.04,149.75 159.04,149.62 174.04,149.85 189.03,150.5 201,151.3 215.94,152.62 230.85,154.23 281.45,160.68 302.31,163.01 314.27,164.06 326.24,164.83 344.23,165.35 353.23,165.32 365.23,164.96 377.21,164.27 389.17,163.28 407.07,161.37 451.7,155.65 472.56,153.21 490.48,151.52 511.43,150.18 532.43,149.63 544.42,149.7 553.42,149.93 574.39,151.04 586.35,152 598.29,153.17" fill="none" stroke="#476227" stroke-width="1"/><polyline id="SvgjsPolyline9474" points="0.17,155.19 12.14,154.34 27.08,152.99 80.76,147.05 104.65,144.76 128.59,143.15 149.58,142.46 161.58,142.4 173.58,142.58 188.56,143.15 203.54,144.06 218.49,145.27 230.43,146.42 284.1,152.37 302.02,154.08 322.97,155.51 334.96,155.97 343.96,156.11 352.96,156.09 364.96,155.79 385.92,154.59 406.84,152.71 451.56,147.72 475.44,145.3 493.38,143.87 511.35,142.89 532.35,142.4 553.34,142.66 565.33,143.14 577.31,143.83 598.24,145.52" fill="none" stroke="#476227" stroke-width="1"/><polyline id="SvgjsPolyline9475" points="2.57,145.95 17.54,144.96 32.49,143.72 77.27,139.36 101.18,137.28 125.14,135.77 137.13,135.28 149.12,135.01 161.12,134.94 173.12,135.1 188.11,135.58 200.1,136.19 212.07,136.98 230.01,138.44 280.77,143.35 298.71,144.89 310.68,145.72 322.66,146.35 343.65,146.88 364.65,146.61 376.64,146.11 388.62,145.39 412.54,143.44 454.34,139.35 472.27,137.75 490.22,136.43 511.19,135.38 532.19,134.95 553.19,135.17 574.17,136.03 598.11,137.68" fill="none" stroke="#476227" stroke-width="1"/><polyline id="SvgjsPolyline9476" points="2.07,136.91 29.01,135.22 79.83,130.96 100.77,129.38 124.74,128.04 148.73,127.36 163.73,127.31 175.72,127.49 199.71,128.38 226.65,130.11 277.47,134.37 298.41,135.95 319.38,137.1 331.37,137.49 343.37,137.68 364.37,137.46 388.35,136.42 409.3,134.97 472.08,129.78 490.04,128.62 511.02,127.69 529.02,127.33 550.02,127.43 574,128.25 597.96,129.7" fill="none" stroke="#476227" stroke-width="1"/><polyline id="SvgjsPolyline9477" points="1.64,127.86 16.62,127.14 31.59,126.22 79.46,122.72 103.41,121.16 127.39,120.05 148.38,119.55 163.38,119.5 175.38,119.65 199.37,120.42 226.32,121.93 283.17,126.05 301.14,127.17 322.12,128.1 343.11,128.5 364.11,128.32 388.1,127.43 409.06,126.19 474.89,121.49 495.86,120.38 510.85,119.84 534.85,119.49 555.85,119.72 579.83,120.58 597.8,121.58" fill="none" stroke="#476227" stroke-width="1"/><polyline id="SvgjsPolyline9478" points="1.27,118.81 31.24,117.4 85.13,114 106.1,112.86 130.08,111.94 151.08,111.56 178.08,111.72 205.06,112.58 229.03,113.82 276.94,116.86 300.9,118.19 321.88,118.99 342.88,119.34 366.88,119.13 390.86,118.3 408.84,117.37 471.72,113.45 489.69,112.56 510.68,111.84 534.68,111.53 555.68,111.73 576.67,112.36 597.64,113.35" fill="none" stroke="#476227" stroke-width="1"/><polyline id="SvgjsPolyline9479" points="0.96,109.75 30.94,108.55 81.86,105.76 108.83,104.48 129.82,103.8 150.82,103.46 174.82,103.55 201.81,104.23 231.78,105.57 279.7,108.21 300.68,109.2 321.67,109.9 339.67,110.19 366.67,110.03 390.65,109.32 414.63,108.21 468.55,105.26 489.53,104.34 510.52,103.71 531.52,103.44 552.52,103.56 576.51,104.15 597.49,105.01" fill="none" stroke="#476227" stroke-width="1"/><polyline id="SvgjsPolyline9480" points="0.7,100.7 27.68,99.79 102.6,96.36 123.59,95.68 147.59,95.26 171.59,95.28 195.58,95.73 225.57,96.8 276.51,99.22 300.49,100.21 321.48,100.81 342.48,101.08 366.48,100.93 393.47,100.22 414.45,99.37 471.39,96.69 489.37,96.01 510.37,95.46 531.36,95.22 549.36,95.29 573.36,95.75 597.34,96.59" fill="none" stroke="#476227" stroke-width="1"/><polyline id="SvgjsPolyline9481" points="0.47,91.64 27.46,90.86 108.4,87.7 132.39,87.12 153.39,86.9 177.39,87.01 198.39,87.41 231.37,88.49 300.32,91.21 321.31,91.73 345.31,91.97 369.31,91.79 390.3,91.32 417.28,90.38 474.24,88.07 513.22,87.06 534.22,86.89 555.22,87.02 576.22,87.43 597.21,88.08" fill="none" stroke="#476227" stroke-width="1"/><polyline id="SvgjsPolyline9482" points="0.28,82.58 30.27,81.82 105.23,79.26 129.22,78.72 147.22,78.51 171.22,78.52 198.22,78.92 225.21,79.66 294.17,82.04 324.16,82.7 345.16,82.86 366.16,82.75 393.15,82.23 471.11,79.59 510.09,78.66 531.09,78.48 552.09,78.55 576.09,78.94 597.08,79.5" fill="none" stroke="#476227" stroke-width="1"/><polyline id="SvgjsPolyline9483" points="0.12,73.52 33.11,72.79 102.08,70.73 129.07,70.19 150.07,69.99 174.07,70.03 201.07,70.41 303.03,73.26 324.02,73.62 345.02,73.76 369.02,73.63 393.02,73.22 479.98,70.71 512.98,70.1 551.98,70.04 575.97,70.37 599.97,70.94" fill="none" stroke="#476227" stroke-width="1"/><polyline id="SvgjsPolyline9484" points="2.96,64.41 32.96,63.83 101.93,62.05 146.93,61.42 170.93,61.42 194.93,61.67 224.92,62.27 299.9,64.17 323.89,64.54 344.89,64.66 365.89,64.58 392.89,64.2 479.86,62.03 512.86,61.5 554.86,61.47 599.85,62.22" fill="none" stroke="#476227" stroke-width="1"/><polyline id="SvgjsPolyline9485" points="2.83,55.36 35.83,54.79 104.81,53.26 152.81,52.75 179.81,52.83 200.8,53.07 296.78,55.09 341.78,55.56 365.78,55.5 389.78,55.22 479.76,53.3 512.75,52.84 554.75,52.81 599.75,53.46" fill="none" stroke="#476227" stroke-width="1"/><polyline id="SvgjsPolyline9486" points="2.72,46.3 110.7,44.4 155.7,44.04 203.7,44.36 293.68,46.02 341.68,46.47 389.68,46.18 467.67,44.73 509.66,44.15 554.66,44.1 599.66,44.66" fill="none" stroke="#476227" stroke-width="1"/><polyline id="SvgjsPolyline9487" points="2.62,37.24 104.61,35.68 146.61,35.31 197.61,35.5 302.59,37.11 344.59,37.39 392.59,37.1 476.58,35.75 518.58,35.33 554.58,35.34 599.58,35.83" fill="none" stroke="#476227" stroke-width="1"/><polyline id="SvgjsPolyline9488" points="2.54,28.18 110.53,26.77 149.53,26.51 197.53,26.68 302.52,28.07 344.52,28.31 395.52,28.03 479.51,26.86 509.51,26.58 551.51,26.53 599.51,26.96" fill="none" stroke="#476227" stroke-width="1"/><polyline id="SvgjsPolyline9489" points="2.47,19.12 113.46,17.88 149.46,17.68 200.46,17.85 305.45,19.05 341.45,19.23 386.45,19.07 473.45,18.05 518.44,17.7 557.44,17.72 599.44,18.07" fill="none" stroke="#476227" stroke-width="1"/><polyline id="SvgjsPolyline9490" points="2.41,10.06 113.4,8.99 155.4,8.81 206.4,9.01 296.4,9.93 338.4,10.15 395.4,9.95 512.39,8.86 557.39,8.86 599.39,9.15" fill="none" stroke="#476227" stroke-width="1"/><polyline id="SvgjsPolyline9491" points="2.35,1 125.35,0.01" fill="none" stroke="#476227" stroke-width="1"/><polyline id="SvgjsPolyline9492" points="212.48,0 299.48,0.77 341.48,0.94 395.48,0.76 479.47,0.02" fill="none" stroke="#476227" stroke-width="1"/><polyline id="SvgjsPolyline9493" points="590.47,0.01 599.47,0.08" fill="none" stroke="#476227" stroke-width="1"/></g></svg>