<svg xmlns="http://www.w3.org/2000/svg" version="1.1" xmlns:xlink="http://www.w3.org/1999/xlink" xmlns:svgjs="http://svgjs.dev/svgjs" width="1440" height="560" preserveAspectRatio="none" viewBox="0 0 1440 560"><g mask="url(&quot;#SvgjsMask1004&quot;)" fill="none"><path d="M11.58 -15.43L76.53 22.07L76.53 97.07L11.58 134.57L-53.37 97.07L-53.37 22.07zM11.58 209.57L76.53 247.07L76.53 322.07L11.58 359.57L-53.37 322.07L-53.37 247.07zM76.53 322.07L141.49 359.57L141.49 434.57L76.53 472.07L11.58 434.57L11.58 359.57zM76.53 547.07L141.49 584.57L141.49 659.57L76.53 697.07L11.58 659.57L11.58 584.57zM141.49 -15.43L206.44 22.07L206.44 97.07L141.49 134.57L76.53 97.07L76.53 22.07zM206.44 97.07L271.39 134.57L271.39 209.57L206.44 247.07L141.49 209.57L141.49 134.57zM336.35 97.07L401.3 134.57L401.3 209.57L336.35 247.07L271.39 209.57L271.39 134.57zM271.39 209.57L336.35 247.07L336.35 322.07L271.39 359.57L206.44 322.07L206.44 247.07zM401.3 -15.43L466.26 22.07L466.26 97.07L401.3 134.57L336.35 97.07L336.35 22.07zM466.26 97.07L531.21 134.57L531.21 209.57L466.26 247.07L401.3 209.57L401.3 134.57zM401.3 209.57L466.26 247.07L466.26 322.07L401.3 359.57L336.35 322.07L336.35 247.07zM466.26 547.07L531.21 584.57L531.21 659.57L466.26 697.07L401.3 659.57L401.3 584.57zM531.21 -15.43L596.16 22.07L596.16 97.07L531.21 134.57L466.26 97.07L466.26 22.07zM596.16 322.07L661.12 359.57L661.12 434.57L596.16 472.07L531.21 434.57L531.21 359.57zM726.07 97.07L791.03 134.57L791.03 209.57L726.07 247.07L661.12 209.57L661.12 134.57zM661.12 209.57L726.07 247.07L726.07 322.07L661.12 359.57L596.16 322.07L596.16 247.07zM855.98 547.07L920.93 584.57L920.93 659.57L855.98 697.07L791.02 659.57L791.02 584.57zM920.93 209.57L985.89 247.07L985.89 322.07L920.93 359.57L855.98 322.07L855.98 247.07zM1115.79 97.07L1180.75 134.57L1180.75 209.57L1115.79 247.07L1050.84 209.57L1050.84 134.57zM1050.84 209.57L1115.79 247.07L1115.79 322.07L1050.84 359.57L985.89 322.07L985.89 247.07zM1180.75 -15.43L1245.7 22.07L1245.7 97.07L1180.75 134.57L1115.79 97.07L1115.79 22.07zM1505.52 547.07L1570.47 584.57L1570.47 659.57L1505.52 697.07L1440.56 659.57L1440.56 584.57z" stroke="rgba(67, 104, 80, 0.3)" stroke-width="2"></path><path d="M4.08 -15.43 a7.5 7.5 0 1 0 15 0 a7.5 7.5 0 1 0 -15 0zM69.03 22.07 a7.5 7.5 0 1 0 15 0 a7.5 7.5 0 1 0 -15 0zM69.03 97.07 a7.5 7.5 0 1 0 15 0 a7.5 7.5 0 1 0 -15 0zM4.08 134.57 a7.5 7.5 0 1 0 15 0 a7.5 7.5 0 1 0 -15 0zM-60.87 97.07 a7.5 7.5 0 1 0 15 0 a7.5 7.5 0 1 0 -15 0zM-60.87 22.07 a7.5 7.5 0 1 0 15 0 a7.5 7.5 0 1 0 -15 0zM4.08 209.57 a7.5 7.5 0 1 0 15 0 a7.5 7.5 0 1 0 -15 0zM69.03 247.07 a7.5 7.5 0 1 0 15 0 a7.5 7.5 0 1 0 -15 0zM69.03 322.07 a7.5 7.5 0 1 0 15 0 a7.5 7.5 0 1 0 -15 0zM4.08 359.57 a7.5 7.5 0 1 0 15 0 a7.5 7.5 0 1 0 -15 0zM-60.87 322.07 a7.5 7.5 0 1 0 15 0 a7.5 7.5 0 1 0 -15 0zM-60.87 247.07 a7.5 7.5 0 1 0 15 0 a7.5 7.5 0 1 0 -15 0zM133.99 359.57 a7.5 7.5 0 1 0 15 0 a7.5 7.5 0 1 0 -15 0zM133.99 434.57 a7.5 7.5 0 1 0 15 0 a7.5 7.5 0 1 0 -15 0zM69.03 472.07 a7.5 7.5 0 1 0 15 0 a7.5 7.5 0 1 0 -15 0zM4.08 434.57 a7.5 7.5 0 1 0 15 0 a7.5 7.5 0 1 0 -15 0zM69.03 547.07 a7.5 7.5 0 1 0 15 0 a7.5 7.5 0 1 0 -15 0zM133.99 584.57 a7.5 7.5 0 1 0 15 0 a7.5 7.5 0 1 0 -15 0zM133.99 659.57 a7.5 7.5 0 1 0 15 0 a7.5 7.5 0 1 0 -15 0zM69.03 697.07 a7.5 7.5 0 1 0 15 0 a7.5 7.5 0 1 0 -15 0zM4.08 659.57 a7.5 7.5 0 1 0 15 0 a7.5 7.5 0 1 0 -15 0zM4.08 584.57 a7.5 7.5 0 1 0 15 0 a7.5 7.5 0 1 0 -15 0zM133.99 -15.43 a7.5 7.5 0 1 0 15 0 a7.5 7.5 0 1 0 -15 0zM198.94 22.07 a7.5 7.5 0 1 0 15 0 a7.5 7.5 0 1 0 -15 0zM198.94 97.07 a7.5 7.5 0 1 0 15 0 a7.5 7.5 0 1 0 -15 0zM133.99 134.57 a7.5 7.5 0 1 0 15 0 a7.5 7.5 0 1 0 -15 0zM263.89 134.57 a7.5 7.5 0 1 0 15 0 a7.5 7.5 0 1 0 -15 0zM263.89 209.57 a7.5 7.5 0 1 0 15 0 a7.5 7.5 0 1 0 -15 0zM198.94 247.07 a7.5 7.5 0 1 0 15 0 a7.5 7.5 0 1 0 -15 0zM133.99 209.57 a7.5 7.5 0 1 0 15 0 a7.5 7.5 0 1 0 -15 0zM328.85 97.07 a7.5 7.5 0 1 0 15 0 a7.5 7.5 0 1 0 -15 0zM393.8 134.57 a7.5 7.5 0 1 0 15 0 a7.5 7.5 0 1 0 -15 0zM393.8 209.57 a7.5 7.5 0 1 0 15 0 a7.5 7.5 0 1 0 -15 0zM328.85 247.07 a7.5 7.5 0 1 0 15 0 a7.5 7.5 0 1 0 -15 0zM328.85 322.07 a7.5 7.5 0 1 0 15 0 a7.5 7.5 0 1 0 -15 0zM263.89 359.57 a7.5 7.5 0 1 0 15 0 a7.5 7.5 0 1 0 -15 0zM198.94 322.07 a7.5 7.5 0 1 0 15 0 a7.5 7.5 0 1 0 -15 0zM393.8 -15.43 a7.5 7.5 0 1 0 15 0 a7.5 7.5 0 1 0 -15 0zM458.76 22.07 a7.5 7.5 0 1 0 15 0 a7.5 7.5 0 1 0 -15 0zM458.76 97.07 a7.5 7.5 0 1 0 15 0 a7.5 7.5 0 1 0 -15 0zM328.85 22.07 a7.5 7.5 0 1 0 15 0 a7.5 7.5 0 1 0 -15 0zM523.71 134.57 a7.5 7.5 0 1 0 15 0 a7.5 7.5 0 1 0 -15 0zM523.71 209.57 a7.5 7.5 0 1 0 15 0 a7.5 7.5 0 1 0 -15 0zM458.76 247.07 a7.5 7.5 0 1 0 15 0 a7.5 7.5 0 1 0 -15 0zM458.76 322.07 a7.5 7.5 0 1 0 15 0 a7.5 7.5 0 1 0 -15 0zM393.8 359.57 a7.5 7.5 0 1 0 15 0 a7.5 7.5 0 1 0 -15 0zM458.76 547.07 a7.5 7.5 0 1 0 15 0 a7.5 7.5 0 1 0 -15 0zM523.71 584.57 a7.5 7.5 0 1 0 15 0 a7.5 7.5 0 1 0 -15 0zM523.71 659.57 a7.5 7.5 0 1 0 15 0 a7.5 7.5 0 1 0 -15 0zM458.76 697.07 a7.5 7.5 0 1 0 15 0 a7.5 7.5 0 1 0 -15 0zM393.8 659.57 a7.5 7.5 0 1 0 15 0 a7.5 7.5 0 1 0 -15 0zM393.8 584.57 a7.5 7.5 0 1 0 15 0 a7.5 7.5 0 1 0 -15 0zM523.71 -15.43 a7.5 7.5 0 1 0 15 0 a7.5 7.5 0 1 0 -15 0zM588.66 22.07 a7.5 7.5 0 1 0 15 0 a7.5 7.5 0 1 0 -15 0zM588.66 97.07 a7.5 7.5 0 1 0 15 0 a7.5 7.5 0 1 0 -15 0zM588.66 322.07 a7.5 7.5 0 1 0 15 0 a7.5 7.5 0 1 0 -15 0zM653.62 359.57 a7.5 7.5 0 1 0 15 0 a7.5 7.5 0 1 0 -15 0zM653.62 434.57 a7.5 7.5 0 1 0 15 0 a7.5 7.5 0 1 0 -15 0zM588.66 472.07 a7.5 7.5 0 1 0 15 0 a7.5 7.5 0 1 0 -15 0zM523.71 434.57 a7.5 7.5 0 1 0 15 0 a7.5 7.5 0 1 0 -15 0zM523.71 359.57 a7.5 7.5 0 1 0 15 0 a7.5 7.5 0 1 0 -15 0zM718.57 97.07 a7.5 7.5 0 1 0 15 0 a7.5 7.5 0 1 0 -15 0zM783.53 134.57 a7.5 7.5 0 1 0 15 0 a7.5 7.5 0 1 0 -15 0zM783.53 209.57 a7.5 7.5 0 1 0 15 0 a7.5 7.5 0 1 0 -15 0zM718.57 247.07 a7.5 7.5 0 1 0 15 0 a7.5 7.5 0 1 0 -15 0zM653.62 209.57 a7.5 7.5 0 1 0 15 0 a7.5 7.5 0 1 0 -15 0zM653.62 134.57 a7.5 7.5 0 1 0 15 0 a7.5 7.5 0 1 0 -15 0zM718.57 322.07 a7.5 7.5 0 1 0 15 0 a7.5 7.5 0 1 0 -15 0zM588.66 247.07 a7.5 7.5 0 1 0 15 0 a7.5 7.5 0 1 0 -15 0zM848.48 547.07 a7.5 7.5 0 1 0 15 0 a7.5 7.5 0 1 0 -15 0zM913.43 584.57 a7.5 7.5 0 1 0 15 0 a7.5 7.5 0 1 0 -15 0zM913.43 659.57 a7.5 7.5 0 1 0 15 0 a7.5 7.5 0 1 0 -15 0zM848.48 697.07 a7.5 7.5 0 1 0 15 0 a7.5 7.5 0 1 0 -15 0zM783.52 659.57 a7.5 7.5 0 1 0 15 0 a7.5 7.5 0 1 0 -15 0zM783.52 584.57 a7.5 7.5 0 1 0 15 0 a7.5 7.5 0 1 0 -15 0zM913.43 209.57 a7.5 7.5 0 1 0 15 0 a7.5 7.5 0 1 0 -15 0zM978.39 247.07 a7.5 7.5 0 1 0 15 0 a7.5 7.5 0 1 0 -15 0zM978.39 322.07 a7.5 7.5 0 1 0 15 0 a7.5 7.5 0 1 0 -15 0zM913.43 359.57 a7.5 7.5 0 1 0 15 0 a7.5 7.5 0 1 0 -15 0zM848.48 322.07 a7.5 7.5 0 1 0 15 0 a7.5 7.5 0 1 0 -15 0zM848.48 247.07 a7.5 7.5 0 1 0 15 0 a7.5 7.5 0 1 0 -15 0zM1108.29 97.07 a7.5 7.5 0 1 0 15 0 a7.5 7.5 0 1 0 -15 0zM1173.25 134.57 a7.5 7.5 0 1 0 15 0 a7.5 7.5 0 1 0 -15 0zM1173.25 209.57 a7.5 7.5 0 1 0 15 0 a7.5 7.5 0 1 0 -15 0zM1108.29 247.07 a7.5 7.5 0 1 0 15 0 a7.5 7.5 0 1 0 -15 0zM1043.34 209.57 a7.5 7.5 0 1 0 15 0 a7.5 7.5 0 1 0 -15 0zM1043.34 134.57 a7.5 7.5 0 1 0 15 0 a7.5 7.5 0 1 0 -15 0zM1108.29 322.07 a7.5 7.5 0 1 0 15 0 a7.5 7.5 0 1 0 -15 0zM1043.34 359.57 a7.5 7.5 0 1 0 15 0 a7.5 7.5 0 1 0 -15 0zM1173.25 -15.43 a7.5 7.5 0 1 0 15 0 a7.5 7.5 0 1 0 -15 0zM1238.2 22.07 a7.5 7.5 0 1 0 15 0 a7.5 7.5 0 1 0 -15 0zM1238.2 97.07 a7.5 7.5 0 1 0 15 0 a7.5 7.5 0 1 0 -15 0zM1108.29 22.07 a7.5 7.5 0 1 0 15 0 a7.5 7.5 0 1 0 -15 0zM1498.02 547.07 a7.5 7.5 0 1 0 15 0 a7.5 7.5 0 1 0 -15 0zM1562.97 584.57 a7.5 7.5 0 1 0 15 0 a7.5 7.5 0 1 0 -15 0zM1562.97 659.57 a7.5 7.5 0 1 0 15 0 a7.5 7.5 0 1 0 -15 0zM1498.02 697.07 a7.5 7.5 0 1 0 15 0 a7.5 7.5 0 1 0 -15 0zM1433.06 659.57 a7.5 7.5 0 1 0 15 0 a7.5 7.5 0 1 0 -15 0zM1433.06 584.57 a7.5 7.5 0 1 0 15 0 a7.5 7.5 0 1 0 -15 0z" fill="rgba(67, 104, 80, 0.3)"></path><path d="M5.27 -33.59L48.57 -8.59L48.57 41.41L5.27 66.41L-38.03 41.41L-38.03 -8.59zM5.27 116.41L48.57 141.41L48.57 191.41L5.27 216.41L-38.03 191.41L-38.03 141.41zM5.27 416.41L48.57 441.41L48.57 491.41L5.27 516.41L-38.03 491.41L-38.03 441.41zM48.57 491.41L91.88 516.41L91.88 566.41L48.57 591.41L5.27 566.41L5.27 516.41zM91.88 116.41L135.18 141.41L135.18 191.41L91.88 216.41L48.57 191.41L48.57 141.41zM91.88 266.41L135.18 291.41L135.18 341.41L91.88 366.41L48.57 341.41L48.57 291.41zM178.48 -33.59L221.78 -8.59L221.78 41.41L178.48 66.41L135.18 41.41L135.18 -8.59zM221.78 191.41L265.08 216.41L265.08 266.41L221.78 291.41L178.48 266.41L178.48 216.41zM178.48 416.41L221.78 441.41L221.78 491.41L178.48 516.41L135.18 491.41L135.18 441.41zM221.78 491.41L265.08 516.41L265.08 566.41L221.78 591.41L178.48 566.41L178.48 516.41zM265.08 -33.59L308.39 -8.59L308.39 41.41L265.08 66.41L221.78 41.41L221.78 -8.59zM308.39 191.41L351.69 216.41L351.69 266.41L308.39 291.41L265.08 266.41L265.08 216.41zM308.39 341.41L351.69 366.41L351.69 416.41L308.39 441.41L265.08 416.41L265.08 366.41zM351.69 -33.59L394.99 -8.59L394.99 41.41L351.69 66.41L308.39 41.41L308.39 -8.59zM351.69 116.41L394.99 141.41L394.99 191.41L351.69 216.41L308.39 191.41L308.39 141.41zM351.69 266.41L394.99 291.41L394.99 341.41L351.69 366.41L308.39 341.41L308.39 291.41zM394.99 341.41L438.3 366.41L438.3 416.41L394.99 441.41L351.69 416.41L351.69 366.41zM351.69 416.41L394.99 441.41L394.99 491.41L351.69 516.41L308.39 491.41L308.39 441.41zM438.3 -33.59L481.6 -8.59L481.6 41.41L438.3 66.41L394.99 41.41L394.99 -8.59zM438.3 116.41L481.6 141.41L481.6 191.41L438.3 216.41L394.99 191.41L394.99 141.41zM481.6 191.41L524.9 216.41L524.9 266.41L481.6 291.41L438.3 266.41L438.3 216.41zM438.3 266.41L481.6 291.41L481.6 341.41L438.3 366.41L394.99 341.41L394.99 291.41zM438.3 416.41L481.6 441.41L481.6 491.41L438.3 516.41L394.99 491.41L394.99 441.41zM568.2 41.41L611.5 66.41L611.5 116.41L568.2 141.41L524.9 116.41L524.9 66.41zM524.9 116.41L568.2 141.41L568.2 191.41L524.9 216.41L481.6 191.41L481.6 141.41zM568.2 341.41L611.5 366.41L611.5 416.41L568.2 441.41L524.9 416.41L524.9 366.41zM568.2 491.41L611.5 516.41L611.5 566.41L568.2 591.41L524.9 566.41L524.9 516.41zM611.5 -33.59L654.81 -8.59L654.81 41.41L611.5 66.41L568.2 41.41L568.2 -8.59zM654.81 41.41L698.11 66.41L698.11 116.41L654.81 141.41L611.5 116.41L611.5 66.41zM611.5 116.41L654.81 141.41L654.81 191.41L611.5 216.41L568.2 191.41L568.2 141.41zM654.81 491.41L698.11 516.41L698.11 566.41L654.81 591.41L611.5 566.41L611.5 516.41zM741.41 41.41L784.72 66.41L784.72 116.41L741.41 141.41L698.11 116.41L698.11 66.41zM741.41 191.41L784.72 216.41L784.72 266.41L741.41 291.41L698.11 266.41L698.11 216.41zM698.11 266.41L741.41 291.41L741.41 341.41L698.11 366.41L654.81 341.41L654.81 291.41zM741.41 491.41L784.72 516.41L784.72 566.41L741.41 591.41L698.11 566.41L698.11 516.41zM784.72 -33.59L828.02 -8.59L828.02 41.41L784.72 66.41L741.41 41.41L741.41 -8.59zM828.02 41.41L871.32 66.41L871.32 116.41L828.02 141.41L784.72 116.41L784.72 66.41zM784.72 266.41L828.02 291.41L828.02 341.41L784.72 366.41L741.41 341.41L741.41 291.41zM828.02 491.41L871.32 516.41L871.32 566.41L828.02 591.41L784.72 566.41L784.72 516.41zM871.32 -33.59L914.62 -8.59L914.62 41.41L871.32 66.41L828.02 41.41L828.02 -8.59zM914.62 191.41L957.93 216.41L957.93 266.41L914.62 291.41L871.32 266.41L871.32 216.41zM914.62 341.41L957.93 366.41L957.93 416.41L914.62 441.41L871.32 416.41L871.32 366.41zM957.93 -33.59L1001.23 -8.59L1001.23 41.41L957.93 66.41L914.62 41.41L914.62 -8.59zM1001.23 191.41L1044.53 216.41L1044.53 266.41L1001.23 291.41L957.93 266.41L957.93 216.41zM1001.23 341.41L1044.53 366.41L1044.53 416.41L1001.23 441.41L957.93 416.41L957.93 366.41zM1044.53 -33.59L1087.83 -8.59L1087.83 41.41L1044.53 66.41L1001.23 41.41L1001.23 -8.59zM1044.53 116.41L1087.83 141.41L1087.83 191.41L1044.53 216.41L1001.23 191.41L1001.23 141.41zM1131.13 -33.59L1174.44 -8.59L1174.44 41.41L1131.13 66.41L1087.83 41.41L1087.83 -8.59zM1174.44 341.41L1217.74 366.41L1217.74 416.41L1174.44 441.41L1131.13 416.41L1131.13 366.41zM1131.13 416.41L1174.44 441.41L1174.44 491.41L1131.13 516.41L1087.83 491.41L1087.83 441.41zM1217.74 116.41L1261.04 141.41L1261.04 191.41L1217.74 216.41L1174.44 191.41L1174.44 141.41zM1261.04 191.41L1304.35 216.41L1304.35 266.41L1261.04 291.41L1217.74 266.41L1217.74 216.41zM1261.04 341.41L1304.35 366.41L1304.35 416.41L1261.04 441.41L1217.74 416.41L1217.74 366.41zM1304.35 -33.59L1347.65 -8.59L1347.65 41.41L1304.35 66.41L1261.04 41.41L1261.04 -8.59zM1304.35 116.41L1347.65 141.41L1347.65 191.41L1304.35 216.41L1261.04 191.41L1261.04 141.41zM1347.65 191.41L1390.95 216.41L1390.95 266.41L1347.65 291.41L1304.35 266.41L1304.35 216.41zM1304.35 266.41L1347.65 291.41L1347.65 341.41L1304.35 366.41L1261.04 341.41L1261.04 291.41zM1347.65 341.41L1390.95 366.41L1390.95 416.41L1347.65 441.41L1304.35 416.41L1304.35 366.41zM1434.25 41.41L1477.56 66.41L1477.56 116.41L1434.25 141.41L1390.95 116.41L1390.95 66.41zM1434.25 191.41L1477.56 216.41L1477.56 266.41L1434.25 291.41L1390.95 266.41L1390.95 216.41zM1390.95 416.41L1434.25 441.41L1434.25 491.41L1390.95 516.41L1347.65 491.41L1347.65 441.41z" stroke="rgba(67, 104, 80, 0.1)" stroke-width="2"></path></g><defs><mask id="SvgjsMask1004"><rect width="1440" height="560" fill="#ffffff"></rect></mask></defs></svg>