<svg width="166" height="42" viewBox="0 0 166 42" fill="none" xmlns="http://www.w3.org/2000/svg">
<path d="M67.3094 15.2292C67.7745 15.549 68.1524 15.9524 68.4431 16.4393C68.7338 16.919 68.8792 17.4858 68.8792 18.1399C68.8792 18.9248 68.712 19.5898 68.3777 20.1349C68.0507 20.6727 67.5783 21.0978 66.9605 21.4103C66.3064 21.7447 65.5506 21.9809 64.693 22.1189C63.8427 22.257 62.8398 22.3261 61.6842 22.3261H53.6499V21.4758C53.8752 21.4539 54.1586 21.4212 54.5002 21.3776C54.8418 21.334 55.0816 21.2832 55.2197 21.225C55.4886 21.116 55.6703 20.9743 55.7647 20.7999C55.8665 20.6182 55.9174 20.3856 55.9174 20.1022V9.20074C55.9174 8.93911 55.8774 8.72108 55.7975 8.54666C55.7175 8.37224 55.5249 8.21962 55.2197 8.0888C54.9944 7.99432 54.7327 7.91801 54.4348 7.85987C54.1368 7.79446 53.8752 7.74359 53.6499 7.70725V6.85694H62.0549C64.1697 6.85694 65.6959 7.14764 66.6335 7.72905C67.571 8.31046 68.0398 9.16804 68.0398 10.3018C68.0398 10.8251 67.9344 11.2866 67.7236 11.6863C67.5129 12.0787 67.2112 12.4203 66.8188 12.711C66.4627 12.9799 66.0375 13.2125 65.5433 13.4087C65.0491 13.6049 64.5186 13.7684 63.9517 13.8993V14.1064C64.5186 14.1645 65.1073 14.2917 65.7178 14.4879C66.3282 14.6769 66.8588 14.924 67.3094 15.2292ZM63.7991 10.5743C63.7991 9.71675 63.5556 9.04812 63.0687 8.56846C62.589 8.0888 61.8659 7.84897 60.8993 7.84897C60.7612 7.84897 60.5795 7.85623 60.3542 7.87077C60.1362 7.87804 59.9473 7.88531 59.7874 7.89257V13.6267H60.3542C61.5316 13.6267 62.4001 13.3542 62.9597 12.8091C63.5193 12.2568 63.7991 11.5118 63.7991 10.5743ZM64.5622 17.9982C64.5622 16.9226 64.2424 16.0977 63.6029 15.5236C62.9633 14.9494 62.044 14.6624 60.8448 14.6624C60.7067 14.6624 60.5214 14.6696 60.2888 14.6842C60.0635 14.6914 59.8964 14.6987 59.7874 14.706V20.3638C59.8528 20.6327 60.0563 20.8616 60.3979 21.0506C60.7394 21.2323 61.1537 21.3231 61.6406 21.3231C62.5055 21.3231 63.2068 21.0324 63.7446 20.451C64.2897 19.8696 64.5622 19.052 64.5622 17.9982Z" fill="#555335"/>
<path d="M81.3068 13.5068C81.3068 14.0591 81.136 14.5461 80.7944 14.9676C80.4528 15.3819 80.0023 15.589 79.4426 15.589C78.9121 15.589 78.4615 15.4545 78.0909 15.1856C77.7275 14.9167 77.5458 14.5206 77.5458 13.9974C77.5458 13.743 77.564 13.5468 77.6003 13.4087C77.6366 13.2633 77.6694 13.1289 77.6984 13.0053C77.3641 13.0199 77.0116 13.1362 76.641 13.3542C76.2703 13.5722 75.9433 13.8629 75.6599 14.2263V20.2112C75.6599 20.4656 75.6998 20.6763 75.7798 20.8435C75.8597 21.0106 75.9942 21.1414 76.1831 21.2359C76.343 21.3159 76.601 21.3849 76.9571 21.443C77.3205 21.4939 77.5821 21.523 77.742 21.5303V22.3261H70.449V21.5303C70.6307 21.5157 70.8124 21.4976 70.994 21.4758C71.183 21.4467 71.3429 21.4103 71.4737 21.3667C71.7063 21.2868 71.8662 21.1632 71.9534 20.9961C72.0406 20.8289 72.0842 20.6109 72.0842 20.342V13.9974C72.0842 13.7357 72.0224 13.5032 71.8989 13.2997C71.7753 13.0889 71.6263 12.9218 71.4519 12.7982C71.3211 12.711 71.1539 12.6383 70.9504 12.5802C70.7542 12.522 70.5362 12.4821 70.2964 12.4603V11.6645L75.4963 11.381L75.6599 11.5446V13.1253H75.7035C76.2049 12.5438 76.7355 12.0896 77.2951 11.7626C77.8619 11.4283 78.4506 11.2611 79.0611 11.2611C79.737 11.2611 80.2784 11.4719 80.6854 11.8934C81.0997 12.3077 81.3068 12.8455 81.3068 13.5068Z" fill="#555335"/>
<path d="M94.5302 22.0971C94.2104 22.2352 93.8325 22.3624 93.3965 22.4787C92.9604 22.595 92.4989 22.6531 92.012 22.6531C91.1181 22.6531 90.4604 22.5223 90.0388 22.2607C89.6173 21.9918 89.3302 21.6102 89.1776 21.116H89.1122C88.8651 21.3631 88.6253 21.5739 88.3927 21.7483C88.1674 21.9227 87.924 22.0717 87.6623 22.1952C87.3207 22.3551 86.9901 22.4714 86.6703 22.5441C86.3578 22.624 85.9181 22.664 85.3512 22.664C84.5082 22.664 83.7887 22.4169 83.1927 21.9227C82.5968 21.4212 82.2988 20.7599 82.2988 19.9387C82.2988 19.4663 82.3642 19.0665 82.4951 18.7395C82.6259 18.4052 82.8112 18.1108 83.051 17.8565C83.2691 17.6239 83.5198 17.4313 83.8032 17.2787C84.0939 17.1261 84.4101 16.9844 84.7516 16.8535C85.4057 16.6137 86.1906 16.3666 87.1064 16.1122C88.0221 15.8506 88.6907 15.6181 89.1122 15.4146V14.368C89.1122 14.1863 89.0977 13.9465 89.0686 13.6485C89.0395 13.3506 88.9778 13.0998 88.8833 12.8963C88.7815 12.6638 88.6217 12.4675 88.4036 12.3077C88.1856 12.1478 87.8985 12.0678 87.5424 12.0678C87.2226 12.0678 86.9537 12.1151 86.7357 12.2095C86.5249 12.2967 86.3542 12.3876 86.2233 12.4821C86.2451 12.6274 86.3069 12.8491 86.4087 13.1471C86.5104 13.445 86.5613 13.7321 86.5613 14.0083C86.5613 14.1318 86.5286 14.2881 86.4632 14.477C86.3978 14.6587 86.3033 14.8041 86.1797 14.9131C86.0126 15.0584 85.8236 15.1711 85.6129 15.251C85.4094 15.331 85.0932 15.371 84.6644 15.371C84.054 15.371 83.5925 15.2256 83.28 14.9349C82.9674 14.6369 82.8112 14.2517 82.8112 13.7793C82.8112 13.3724 82.9711 13.009 83.2909 12.6892C83.6179 12.3622 84.014 12.0933 84.4791 11.8825C84.937 11.6645 85.4639 11.4973 86.0598 11.381C86.6558 11.2575 87.2081 11.1957 87.7168 11.1957C88.4218 11.1957 89.0686 11.2393 89.6573 11.3265C90.246 11.4065 90.7765 11.5773 91.2489 11.8389C91.6995 12.0933 92.0556 12.4639 92.3172 12.9508C92.5861 13.4305 92.7206 14.0591 92.7206 14.8368C92.7206 15.658 92.7024 16.6319 92.6661 17.7584C92.637 18.8848 92.6225 19.6261 92.6225 19.9823C92.6225 20.3093 92.6697 20.5673 92.7642 20.7563C92.8659 20.9452 93.0186 21.0869 93.2221 21.1814C93.3456 21.2396 93.5382 21.2759 93.7998 21.2904C94.0687 21.2977 94.3122 21.3013 94.5302 21.3013V22.0971ZM89.1122 16.4175C88.7052 16.5556 88.3019 16.7155 87.9022 16.8972C87.5024 17.0716 87.1754 17.2569 86.921 17.4531C86.6521 17.6566 86.4414 17.9183 86.2887 18.238C86.1361 18.5505 86.0598 18.9212 86.0598 19.35C86.0598 19.9168 86.187 20.3275 86.4414 20.5818C86.703 20.8362 87.0228 20.9634 87.4007 20.9634C87.8004 20.9634 88.1275 20.8834 88.3818 20.7236C88.6435 20.5564 88.8724 20.3529 89.0686 20.1131L89.1122 16.4175Z" fill="#555335"/>
<path d="M101.594 22.6749C100.584 22.6749 99.6902 22.5296 98.9126 22.2389C98.1422 21.9409 97.5063 21.5375 97.0048 21.0288C96.5034 20.5128 96.1291 19.9023 95.882 19.1974C95.6349 18.4924 95.5114 17.7257 95.5114 16.8972C95.5114 16.1413 95.6603 15.4218 95.9583 14.7387C96.2636 14.0555 96.6742 13.4559 97.1902 12.9399C97.7207 12.4094 98.3784 11.9879 99.1633 11.6754C99.9555 11.3556 100.828 11.1957 101.78 11.1957C103.117 11.1957 104.174 11.4501 104.952 11.9588C105.73 12.4603 106.118 13.1398 106.118 13.9974C106.118 14.5206 105.98 14.9422 105.704 15.2619C105.428 15.5817 104.952 15.7416 104.276 15.7416C103.731 15.7416 103.273 15.6108 102.903 15.3491C102.539 15.0875 102.357 14.7459 102.357 14.3244C102.357 13.9683 102.416 13.6158 102.532 13.267C102.648 12.9181 102.717 12.6529 102.739 12.4712C102.659 12.3404 102.557 12.2422 102.434 12.1768C102.31 12.1042 102.118 12.0678 101.856 12.0678C101.529 12.0678 101.231 12.1441 100.962 12.2967C100.693 12.4494 100.442 12.7183 100.21 13.1035C99.9846 13.4668 99.8029 13.9538 99.6648 14.5642C99.534 15.1747 99.4686 15.9088 99.4686 16.7663C99.4686 18.06 99.7702 19.1029 100.373 19.895C100.984 20.6872 101.711 21.0833 102.554 21.0833C103.36 21.0833 104 20.9052 104.472 20.5491C104.952 20.1858 105.377 19.6734 105.748 19.012L106.565 19.5789C106.34 20.0222 106.071 20.4292 105.759 20.7999C105.446 21.1632 105.072 21.4867 104.636 21.7701C104.178 22.0681 103.713 22.2934 103.24 22.446C102.768 22.5986 102.219 22.6749 101.594 22.6749Z" fill="#555335"/>
<path d="M121.217 22.3261H116.082C115.45 21.2141 114.872 20.273 114.349 19.5026C113.826 18.725 113.332 18.0055 112.866 17.3441L112.212 17.9001V20.2766C112.212 20.5382 112.249 20.7526 112.321 20.9198C112.401 21.0869 112.55 21.2105 112.768 21.2904C112.899 21.3486 113.052 21.3994 113.226 21.443C113.401 21.4867 113.575 21.5157 113.749 21.5303V22.3261H107.001V21.5303C107.183 21.5157 107.365 21.4976 107.547 21.4758C107.728 21.4467 107.888 21.4103 108.026 21.3667C108.259 21.2868 108.415 21.1632 108.495 20.9961C108.582 20.8289 108.626 20.6109 108.626 20.342V8.18691C108.626 7.94708 108.571 7.69998 108.462 7.44561C108.361 7.18398 108.208 6.98775 108.004 6.85694C107.866 6.76973 107.659 6.69705 107.383 6.63891C107.107 6.58077 106.856 6.54443 106.631 6.52989V5.73409L112.049 5.45065L112.212 5.62508V16.8753C112.75 16.3957 113.353 15.8397 114.022 15.2074C114.698 14.5751 115.239 14.0519 115.646 13.6376C115.886 13.3905 116.017 13.2052 116.039 13.0817C116.068 12.9508 116.082 12.8709 116.082 12.8418C116.082 12.711 115.966 12.602 115.734 12.5148C115.508 12.4276 115.167 12.3513 114.709 12.2858V11.5118H120.247V12.264C119.52 12.4675 118.964 12.6601 118.579 12.8418C118.201 13.0162 117.787 13.2524 117.336 13.5504C117.038 13.7466 116.747 13.9538 116.464 14.1718C116.188 14.3826 115.868 14.6478 115.505 14.9676C116.217 15.9996 116.875 16.9553 117.478 17.8347C118.081 18.7141 118.713 19.6443 119.375 20.6254C119.6 20.967 119.88 21.1959 120.214 21.3122C120.548 21.4285 120.883 21.5012 121.217 21.5303V22.3261Z" fill="#555335"/>
<path d="M128.227 22.3261H121.337V21.5303C121.526 21.5157 121.711 21.4976 121.893 21.4758C122.075 21.4539 122.231 21.4176 122.362 21.3667C122.594 21.2795 122.758 21.156 122.852 20.9961C122.947 20.8289 122.994 20.6109 122.994 20.342V13.9974C122.994 13.743 122.936 13.5213 122.819 13.3324C122.703 13.1362 122.558 12.9799 122.383 12.8636C122.253 12.7764 122.053 12.6928 121.784 12.6129C121.522 12.5329 121.282 12.4821 121.064 12.4603V11.6645L126.406 11.381L126.57 11.5446V20.2003C126.57 20.4547 126.624 20.6727 126.733 20.8544C126.842 21.0288 126.998 21.1596 127.202 21.2468C127.347 21.3122 127.507 21.3704 127.681 21.4212C127.856 21.4721 128.038 21.5085 128.227 21.5303V22.3261ZM126.635 7.45652C126.635 8.00885 126.421 8.48125 125.992 8.8737C125.57 9.25889 125.069 9.45148 124.487 9.45148C123.899 9.45148 123.39 9.25889 122.961 8.8737C122.54 8.48125 122.329 8.00885 122.329 7.45652C122.329 6.90418 122.54 6.43178 122.961 6.03933C123.39 5.64688 123.899 5.45065 124.487 5.45065C125.076 5.45065 125.581 5.64688 126.003 6.03933C126.424 6.43178 126.635 6.90418 126.635 7.45652Z" fill="#555335"/>
<path d="M143.456 22.0971L138.256 22.4133L138.092 22.2607V20.8326H138.027C137.78 21.0579 137.536 21.2795 137.297 21.4976C137.064 21.7083 136.784 21.9009 136.457 22.0753C136.086 22.2716 135.734 22.4169 135.4 22.5114C135.073 22.6059 134.593 22.6531 133.961 22.6531C132.863 22.6531 132.02 22.3224 131.432 21.6611C130.85 20.9997 130.559 20.0658 130.559 18.8594V13.9538C130.559 13.6703 130.505 13.4414 130.396 13.267C130.287 13.0853 130.142 12.9254 129.96 12.7873C129.815 12.6783 129.626 12.602 129.393 12.5584C129.16 12.5075 128.95 12.4748 128.761 12.4603V11.6645L134.048 11.381L134.168 11.5446V18.794C134.168 19.5426 134.31 20.0949 134.593 20.451C134.884 20.8071 135.28 20.9852 135.781 20.9852C136.297 20.9852 136.759 20.8507 137.166 20.5818C137.58 20.3129 137.882 20.0259 138.071 19.7206V13.8448C138.071 13.5977 138.023 13.376 137.929 13.1798C137.834 12.9835 137.696 12.8237 137.515 12.7001C137.384 12.6129 137.195 12.5548 136.948 12.5257C136.708 12.4966 136.461 12.4748 136.206 12.4603V11.6645L141.494 11.381L141.657 11.5446V19.9605C141.657 20.2148 141.708 20.4328 141.81 20.6145C141.911 20.789 142.06 20.9379 142.257 21.0615C142.395 21.1487 142.573 21.2105 142.791 21.2468C143.016 21.2759 143.238 21.2941 143.456 21.3013V22.0971Z" fill="#555335"/>
<path d="M166 22.3261H159.503V21.5303C159.663 21.5085 159.83 21.4903 160.004 21.4758C160.179 21.4612 160.324 21.4249 160.44 21.3667C160.6 21.2941 160.702 21.1741 160.745 21.007C160.789 20.8326 160.811 20.6109 160.811 20.342V15.251C160.811 14.5025 160.676 13.9429 160.408 13.5722C160.146 13.1943 159.768 13.0053 159.274 13.0053C158.961 13.0053 158.681 13.0562 158.434 13.158C158.195 13.2524 157.973 13.3724 157.769 13.5177C157.559 13.6703 157.395 13.8229 157.279 13.9756C157.163 14.1282 157.064 14.259 156.985 14.368V20.2221C156.985 20.4837 157.014 20.6981 157.072 20.8653C157.137 21.0252 157.253 21.1523 157.421 21.2468C157.537 21.3122 157.668 21.3704 157.813 21.4212C157.966 21.4721 158.126 21.5085 158.293 21.5303V22.3261H152.068V21.5303C152.206 21.5157 152.373 21.4976 152.569 21.4758C152.766 21.4539 152.911 21.4176 153.005 21.3667C153.158 21.2868 153.256 21.1705 153.3 21.0179C153.351 20.8653 153.376 20.64 153.376 20.342V15.251C153.376 14.5025 153.242 13.9429 152.973 13.5722C152.711 13.1943 152.333 13.0053 151.839 13.0053C151.527 13.0053 151.247 13.0562 151 13.158C150.76 13.2524 150.538 13.3724 150.335 13.5177C150.124 13.6703 149.96 13.8229 149.844 13.9756C149.728 14.1282 149.63 14.259 149.55 14.368V20.2221C149.55 20.4765 149.582 20.6872 149.648 20.8544C149.713 21.0215 149.83 21.1523 149.997 21.2468C150.113 21.3122 150.244 21.3704 150.389 21.4212C150.542 21.4721 150.702 21.5085 150.869 21.5303V22.3261H144.339V21.5303C144.528 21.5157 144.713 21.4976 144.895 21.4758C145.077 21.4539 145.233 21.4176 145.364 21.3667C145.596 21.2795 145.756 21.156 145.843 20.9961C145.93 20.8289 145.974 20.6109 145.974 20.342V13.9974C145.974 13.7648 145.912 13.5395 145.789 13.3215C145.665 13.0962 145.516 12.9218 145.342 12.7982C145.211 12.711 145.044 12.6383 144.84 12.5802C144.644 12.522 144.426 12.4821 144.186 12.4603V11.6645L149.386 11.381L149.55 11.5446V13.0817H149.593C149.797 12.9 150.037 12.6856 150.313 12.4385C150.596 12.1841 150.862 11.9806 151.109 11.828C151.378 11.6536 151.723 11.5082 152.144 11.3919C152.566 11.2756 153.027 11.2175 153.529 11.2175C154.357 11.2175 155.048 11.3992 155.6 11.7626C156.16 12.1187 156.556 12.5947 156.788 13.1907H156.886C157.097 12.9944 157.355 12.7655 157.66 12.5039C157.966 12.235 158.245 12.0206 158.5 11.8607C158.783 11.679 159.143 11.5264 159.579 11.4028C160.022 11.2793 160.495 11.2175 160.996 11.2175C162.094 11.2175 162.937 11.5409 163.525 12.1877C164.121 12.8346 164.419 13.7539 164.419 14.9458V20.2439C164.419 20.5128 164.459 20.7308 164.539 20.898C164.619 21.0579 164.764 21.1814 164.975 21.2686C165.092 21.3195 165.233 21.3704 165.4 21.4212C165.575 21.4721 165.775 21.5085 166 21.5303V22.3261Z" fill="#555335"/>
<path d="M54.9907 33.0481H52.9312V32.5123H57.6699V33.0481H55.6103V38.3729H54.9907V33.0481Z" fill="#555335"/>
<path d="M63.4988 38.3729L62.1593 36.4891C62.0086 36.5059 61.8523 36.5142 61.6904 36.5142H60.1164V38.3729H59.4969V32.5123H61.6904C62.4383 32.5123 63.0244 32.6909 63.4486 33.0481C63.8728 33.4053 64.0849 33.8965 64.0849 34.5216C64.0849 34.9793 63.9677 35.3672 63.7332 35.6854C63.5044 35.9979 63.1751 36.224 62.7453 36.3635L64.177 38.3729H63.4988ZM61.6737 35.9868C62.2541 35.9868 62.6979 35.8584 63.0049 35.6016C63.3118 35.3449 63.4653 34.9849 63.4653 34.5216C63.4653 34.0472 63.3118 33.6844 63.0049 33.4332C62.6979 33.1765 62.2541 33.0481 61.6737 33.0481H60.1164V35.9868H61.6737Z" fill="#555335"/>
<path d="M70.0598 36.8073H66.7946L66.0914 38.3729H65.4467L68.1258 32.5123H68.737L71.4161 38.3729H70.7631L70.0598 36.8073ZM69.8338 36.3049L68.4272 33.1569L67.0207 36.3049H69.8338Z" fill="#555335"/>
<path d="M73.2229 32.5123H75.609C76.2285 32.5123 76.7755 32.6379 77.2499 32.889C77.7244 33.1346 78.0927 33.4807 78.3551 33.9272C78.6174 34.3681 78.7486 34.8733 78.7486 35.4426C78.7486 36.0119 78.6174 36.5198 78.3551 36.9663C78.0927 37.4073 77.7244 37.7533 77.2499 38.0045C76.7755 38.2501 76.2285 38.3729 75.609 38.3729H73.2229V32.5123ZM75.5755 37.8371C76.089 37.8371 76.5383 37.7366 76.9234 37.5356C77.3085 37.3291 77.6071 37.0473 77.8192 36.69C78.0313 36.3272 78.1374 35.9114 78.1374 35.4426C78.1374 34.9737 78.0313 34.5607 77.8192 34.2035C77.6071 33.8407 77.3085 33.5588 76.9234 33.3579C76.5383 33.1514 76.089 33.0481 75.5755 33.0481H73.8424V37.8371H75.5755Z" fill="#555335"/>
<path d="M85.1213 37.8371V38.3729H80.977V32.5123H84.9957V33.0481H81.5966V35.1328H84.6274V35.6603H81.5966V37.8371H85.1213Z" fill="#555335"/>
<path d="M91.4168 38.3729L90.0773 36.4891C89.9266 36.5059 89.7703 36.5142 89.6084 36.5142H88.0344V38.3729H87.4149V32.5123H89.6084C90.3563 32.5123 90.9424 32.6909 91.3666 33.0481C91.7908 33.4053 92.0029 33.8965 92.0029 34.5216C92.0029 34.9793 91.8857 35.3672 91.6513 35.6854C91.4224 35.9979 91.0931 36.224 90.6633 36.3635L92.095 38.3729H91.4168ZM89.5917 35.9868C90.1721 35.9868 90.6159 35.8584 90.9229 35.6016C91.2299 35.3449 91.3833 34.9849 91.3833 34.5216C91.3833 34.0472 91.2299 33.6844 90.9229 33.4332C90.6159 33.1765 90.1721 33.0481 89.5917 33.0481H88.0344V35.9868H89.5917Z" fill="#555335"/>
<path d="M95.9183 38.4231C95.4829 38.4231 95.0643 38.3533 94.6624 38.2138C94.2661 38.0743 93.9591 37.8901 93.7415 37.6612L93.9842 37.184C94.1964 37.3961 94.4782 37.5691 94.8299 37.7031C95.1815 37.8315 95.5443 37.8957 95.9183 37.8957C96.4429 37.8957 96.8364 37.8008 97.0987 37.611C97.3611 37.4156 97.4922 37.1645 97.4922 36.8575C97.4922 36.6231 97.4197 36.4361 97.2746 36.2965C97.135 36.157 96.962 36.051 96.7555 35.9784C96.549 35.9003 96.2615 35.8165 95.8931 35.7272C95.4522 35.6156 95.1006 35.5096 94.8382 35.4091C94.5759 35.303 94.3498 35.144 94.1601 34.9319C93.9759 34.7198 93.8838 34.4323 93.8838 34.0695C93.8838 33.7737 93.9619 33.5058 94.1182 33.2658C94.2745 33.0202 94.5145 32.8248 94.8382 32.6797C95.162 32.5346 95.5638 32.462 96.0438 32.462C96.3787 32.462 96.7052 32.5095 97.0234 32.6044C97.3471 32.6937 97.6262 32.8193 97.8606 32.9811L97.6513 33.4751C97.4057 33.3132 97.1434 33.1932 96.8643 33.1151C96.5852 33.0314 96.3118 32.9895 96.0438 32.9895C95.5303 32.9895 95.1424 33.09 94.8801 33.2909C94.6233 33.4862 94.495 33.7402 94.495 34.0528C94.495 34.2872 94.5647 34.477 94.7043 34.6221C94.8494 34.7616 95.028 34.8705 95.2401 34.9486C95.4578 35.0212 95.748 35.1021 96.1108 35.1914C96.5406 35.2975 96.8867 35.4035 97.149 35.5096C97.4169 35.61 97.6429 35.7663 97.8271 35.9784C98.0113 36.1849 98.1034 36.4668 98.1034 36.824C98.1034 37.1198 98.0225 37.3905 97.8606 37.6361C97.7043 37.8761 97.4615 38.0687 97.1322 38.2138C96.8029 38.3533 96.3983 38.4231 95.9183 38.4231Z" fill="#555335"/>
<path d="M103.319 32.5123H103.939V37.8371H107.22V38.3729H103.319V32.5123Z" fill="#555335"/>
<path d="M109.086 32.5123H109.706V38.3729H109.086V32.5123Z" fill="#555335"/>
<path d="M118.537 32.5123V38.3729H117.942V33.6844L115.64 37.6277H115.347L113.044 33.7095V38.3729H112.45V32.5123H112.961L115.506 36.8575L118.026 32.5123H118.537Z" fill="#555335"/>
<path d="M121.283 32.5123H121.903V38.3729H121.283V32.5123Z" fill="#555335"/>
<path d="M125.786 33.0481H123.726V32.5123H128.465V33.0481H126.405V38.3729H125.786V33.0481Z" fill="#555335"/>
<path d="M134.436 37.8371V38.3729H130.292V32.5123H134.311V33.0481H130.911V35.1328H133.942V35.6603H130.911V37.8371H134.436Z" fill="#555335"/>
<path d="M136.73 32.5123H139.116C139.735 32.5123 140.282 32.6379 140.757 32.889C141.231 33.1346 141.6 33.4807 141.862 33.9272C142.124 34.3681 142.255 34.8733 142.255 35.4426C142.255 36.0119 142.124 36.5198 141.862 36.9663C141.6 37.4073 141.231 37.7533 140.757 38.0045C140.282 38.2501 139.735 38.3729 139.116 38.3729H136.73V32.5123ZM139.082 37.8371C139.596 37.8371 140.045 37.7366 140.43 37.5356C140.815 37.3291 141.114 37.0473 141.326 36.69C141.538 36.3272 141.644 35.9114 141.644 35.4426C141.644 34.9737 141.538 34.5607 141.326 34.2035C141.114 33.8407 140.815 33.5588 140.43 33.3579C140.045 33.1514 139.596 33.0481 139.082 33.0481H137.349V37.8371H139.082Z" fill="#555335"/>
<path d="M0 7.28026C0 3.25948 3.30115 0 7.37333 0H39.816C43.8882 0 47.1893 3.25948 47.1893 7.28026V34.5812C47.1893 38.602 43.8882 41.8615 39.816 41.8615H7.37333C3.30115 41.8615 0 38.602 0 34.5812V7.28026Z" fill="#CEBD9A"/>
<g filter="url(#filter0_i)">
<path d="M40.1511 21.7893C40.8605 22.2849 41.4498 22.9339 41.9189 23.7363C42.3881 24.5388 42.6226 25.5123 42.6226 26.6569C42.6226 27.8251 42.3766 28.84 41.8846 29.7014C41.3926 30.5628 40.7518 31.2708 39.9623 31.8254C39.1957 32.3682 38.3261 32.7812 37.3535 33.0645C36.3924 33.3477 35.397 33.4893 34.3672 33.4893H22.8336V32.2325C23.1082 32.2089 23.5086 32.1617 24.035 32.0909C24.5613 32.0083 24.9389 31.9139 25.1677 31.8077C25.5224 31.6425 25.7742 31.4242 25.9229 31.1528C26.0717 30.8696 26.146 30.5097 26.146 30.0731V12.0187C26.146 11.6175 26.0774 11.2634 25.9401 10.9566C25.8142 10.6498 25.5568 10.402 25.1677 10.2132C24.8245 10.0362 24.4412 9.90051 24.0178 9.80611C23.5945 9.71171 23.2398 9.65271 22.9537 9.6291V8.37238H34.1955C35.0651 8.37238 35.8947 8.46088 36.6842 8.63788C37.4851 8.81489 38.246 9.12759 38.9669 9.576C39.642 9.98901 40.1969 10.5495 40.6317 11.2575C41.0665 11.9656 41.2839 12.827 41.2839 13.8418C41.2839 14.7268 41.1294 15.5174 40.8205 16.2137C40.5116 16.8981 40.0768 17.4881 39.5161 17.9837C38.9898 18.4557 38.3833 18.8569 37.6968 19.1873C37.0217 19.5059 36.2894 19.7537 35.4999 19.9307V20.0901C36.1979 20.1727 36.976 20.3556 37.8341 20.6388C38.7037 20.9102 39.4761 21.2937 40.1511 21.7893ZM36.0148 18.0014C36.4382 17.494 36.73 16.9394 36.8901 16.3376C37.0618 15.7357 37.1476 15.0218 37.1476 14.1958C37.1476 12.8152 36.7814 11.7355 36.0492 10.9566C35.3169 10.166 34.1612 9.77071 32.5822 9.77071C32.2161 9.77071 31.7527 9.78251 31.192 9.80611C30.6428 9.81791 30.1794 9.82971 29.8018 9.84151V19.4882H31.9815C32.9197 19.4882 33.7207 19.3643 34.3843 19.1165C35.0594 18.8687 35.6029 18.497 36.0148 18.0014ZM38.3833 26.0197C38.3833 24.5329 37.897 23.3115 36.9245 22.3557C35.9633 21.3999 34.5846 20.922 32.7882 20.922C32.0559 20.922 31.438 20.9338 30.9345 20.9574C30.4311 20.9692 30.0535 20.981 29.8018 20.9928V29.843C29.8018 30.5864 30.0936 31.1469 30.6771 31.5245C31.2606 31.9021 32.073 32.0909 33.1143 32.0909C34.8191 32.0909 36.1235 31.5776 37.0274 30.551C37.9314 29.5244 38.3833 28.0139 38.3833 26.0197Z" fill="#CEBD9A"/>
<path fill-rule="evenodd" clip-rule="evenodd" d="M39.9506 22.0871L39.9473 22.0846C39.3061 21.6139 38.5689 21.2468 37.7323 20.9857L37.7296 20.9849L37.727 20.984C36.8849 20.7061 36.1297 20.5295 35.4599 20.4502L35.1484 20.4133V19.6386L35.4253 19.5765C36.1918 19.4047 36.8995 19.1648 37.5494 18.8582C38.2083 18.541 38.7862 18.1579 39.2855 17.7102L39.2873 17.7085C39.81 17.2465 40.2138 16.6984 40.5013 16.0617C40.7859 15.42 40.9324 14.6824 40.9324 13.8418C40.9324 12.8811 40.727 12.0903 40.3347 11.4515C39.9285 10.79 39.4133 10.2706 38.7875 9.88778L38.7853 9.88642C38.0969 9.45817 37.3723 9.16069 36.6105 8.99234L36.6095 8.99211C35.8463 8.82101 35.0419 8.73488 34.1955 8.73488H23.3052V9.30463C23.5395 9.33777 23.8022 9.38715 24.0921 9.45179C24.5391 9.55146 24.9495 9.69584 25.3212 9.88707C25.7584 10.1 26.0918 10.4008 26.2615 10.8099C26.4222 11.1711 26.4975 11.5768 26.4975 12.0187V30.0731C26.4975 30.5495 26.4167 30.9737 26.232 31.3255L26.2305 31.3283L26.2289 31.3312C26.0341 31.6867 25.7156 31.9503 25.3124 32.1381L25.312 32.1383C25.0367 32.2661 24.6187 32.366 24.0879 32.4493L24.0842 32.4499L24.0804 32.4504C23.7277 32.4978 23.4289 32.5351 23.1851 32.5618V33.1268H34.3672C35.3653 33.1268 36.3282 32.9896 37.257 32.7159L37.258 32.7156C38.1969 32.4422 39.031 32.0452 39.7634 31.5266L39.7645 31.5258C40.5105 31.0018 41.1156 30.3335 41.5817 29.5174C42.0369 28.7205 42.2711 27.7715 42.2711 26.6569C42.2711 25.5636 42.0474 24.6581 41.6179 23.9235C41.1735 23.1633 40.6187 22.5538 39.954 22.0894L39.9506 22.0871ZM22.8336 32.2325C23.1082 32.2089 23.5086 32.1617 24.035 32.0909C24.5613 32.0083 24.9389 31.9139 25.1677 31.8077C25.5224 31.6425 25.7742 31.4242 25.9229 31.1528C26.0717 30.8696 26.146 30.5097 26.146 30.0731V12.0187C26.146 11.6175 26.0774 11.2634 25.9401 10.9566C25.8142 10.6498 25.5568 10.402 25.1677 10.2132C24.8245 10.0362 24.4412 9.90051 24.0178 9.80611C23.5945 9.71171 23.2398 9.65271 22.9537 9.6291V8.37238H34.1955C35.0651 8.37238 35.8947 8.46088 36.6842 8.63788C37.4851 8.81489 38.246 9.12759 38.9669 9.576C39.642 9.98901 40.1969 10.5495 40.6317 11.2575C41.0665 11.9656 41.2839 12.827 41.2839 13.8418C41.2839 14.7268 41.1294 15.5174 40.8205 16.2137C40.5116 16.8981 40.0768 17.4881 39.5161 17.9837C38.9898 18.4557 38.3833 18.8569 37.6968 19.1873C37.1736 19.4343 36.616 19.6387 36.0241 19.8005C35.8581 19.8459 35.6895 19.888 35.5181 19.9267C35.5121 19.928 35.506 19.9294 35.4999 19.9307V20.0901C35.5114 20.0914 35.5229 20.0928 35.5344 20.0942C35.6984 20.1143 35.8669 20.1399 36.0397 20.171C36.5928 20.2706 37.191 20.4265 37.8341 20.6388C38.7037 20.9102 39.4761 21.2937 40.1511 21.7893C40.8605 22.2849 41.4498 22.9339 41.9189 23.7363C42.3881 24.5388 42.6226 25.5123 42.6226 26.6569C42.6226 27.8251 42.3766 28.84 41.8846 29.7014C41.3926 30.5628 40.7518 31.2708 39.9623 31.8254C39.1957 32.3682 38.3261 32.7812 37.3535 33.0645C36.3924 33.3477 35.397 33.4893 34.3672 33.4893H22.8336V32.2325ZM29.8018 19.4882V9.84151C30.1794 9.82971 30.6428 9.81791 31.192 9.80611C31.7527 9.78251 32.2161 9.77071 32.5822 9.77071C34.1612 9.77071 35.3169 10.166 36.0492 10.9566C36.7814 11.7355 37.1476 12.8152 37.1476 14.1958C37.1476 15.0218 37.0618 15.7357 36.8901 16.3376C36.73 16.9394 36.4382 17.494 36.0148 18.0014C35.6029 18.497 35.0594 18.8687 34.3843 19.1165C33.7207 19.3643 32.9197 19.4882 31.9815 19.4882H29.8018ZM34.503 19.4577C33.7909 19.7235 32.9475 19.8507 31.9815 19.8507H29.4503V9.48982L29.7911 9.47917C30.1694 9.46735 30.6328 9.45555 31.1812 9.44376C31.7428 9.42015 32.2102 9.4082 32.5822 9.4082C34.2097 9.4082 35.4772 9.815 36.3024 10.7053C37.1137 11.5687 37.4991 12.7484 37.4991 14.1958C37.4991 15.0448 37.4112 15.7938 37.2282 16.4367C37.0532 17.0926 36.7355 17.6932 36.2817 18.2373C35.825 18.7868 35.2277 19.1916 34.503 19.4577ZM29.8018 20.9928C30.0535 20.981 30.4311 20.9692 30.9345 20.9574C31.438 20.9338 32.0559 20.922 32.7882 20.922C34.5846 20.922 35.9633 21.3999 36.9245 22.3557C37.897 23.3115 38.3833 24.5329 38.3833 26.0197C38.3833 28.0139 37.9314 29.5244 37.0274 30.551C36.1235 31.5776 34.8191 32.0909 33.1143 32.0909C32.073 32.0909 31.2606 31.9021 30.6771 31.5245C30.0936 31.1469 29.8018 30.5864 29.8018 29.843V20.9928ZM37.1677 22.094C36.1211 21.0536 34.6429 20.5595 32.7882 20.5595C32.0546 20.5595 31.4324 20.5712 30.9225 20.5951C30.4205 20.6068 30.041 20.6187 29.7858 20.6306L29.4503 20.6464V29.843C29.4503 30.7042 29.7986 31.384 30.4903 31.8316C31.1515 32.2595 32.0384 32.4534 33.1143 32.4534C34.8899 32.4534 36.3002 31.9162 37.2877 30.7947C38.2716 29.6772 38.7348 28.0649 38.7348 26.0197C38.7348 24.4421 38.2149 23.1235 37.1677 22.094Z" fill="#D2B774"/>
<path d="M7.03817 21.7893C6.32876 22.2849 5.73949 22.9339 5.27036 23.7363C4.80124 24.5388 4.56668 25.5123 4.56668 26.6569C4.56668 27.8251 4.81268 28.84 5.30469 29.7014C5.7967 30.5628 6.43746 31.2708 7.22696 31.8254C7.99358 32.3682 8.86318 32.7812 9.83575 33.0645C10.7969 33.3477 11.7923 33.4893 12.8221 33.4893H24.3557V32.2325C24.0811 32.2089 23.6807 32.1617 23.1543 32.0909C22.628 32.0083 22.2504 31.9139 22.0216 31.8077C21.6669 31.6425 21.4151 31.4242 21.2664 31.1528C21.1176 30.8696 21.0433 30.5097 21.0433 30.0731V12.0187C21.0433 11.6175 21.1119 11.2634 21.2492 10.9566C21.3751 10.6498 21.6325 10.402 22.0216 10.2132C22.3648 10.0362 22.7481 9.90051 23.1715 9.80611C23.5948 9.71171 23.9495 9.65271 24.2356 9.6291V8.37238H12.9938C12.1242 8.37238 11.2946 8.46088 10.5051 8.63788C9.70417 8.81489 8.94327 9.12759 8.22242 9.576C7.54734 9.98901 6.9924 10.5495 6.5576 11.2575C6.1228 11.9656 5.9054 12.827 5.9054 13.8418C5.9054 14.7268 6.05987 15.5174 6.3688 16.2137C6.67774 16.8981 7.11254 17.4881 7.6732 17.9837C8.19954 18.4557 8.80597 18.8569 9.49249 19.1873C10.1676 19.5059 10.8999 19.7537 11.6894 19.9307V20.0901C10.9914 20.1727 10.2133 20.3556 9.35519 20.6388C8.48559 20.9102 7.71325 21.2937 7.03817 21.7893ZM11.1745 18.0014C10.7511 17.494 10.4593 16.9394 10.2992 16.3376C10.1275 15.7357 10.0417 15.0218 10.0417 14.1958C10.0417 12.8152 10.4079 11.7355 11.1401 10.9566C11.8724 10.166 13.0281 9.77071 14.6071 9.77071C14.9732 9.77071 15.4366 9.78251 15.9973 9.80611C16.5465 9.81791 17.0099 9.82971 17.3875 9.84151V19.4882H15.2078C14.2696 19.4882 13.4686 19.3643 12.805 19.1165C12.1299 18.8687 11.5864 18.497 11.1745 18.0014ZM8.80597 26.0197C8.80597 24.5329 9.29225 23.3115 10.2648 22.3557C11.226 21.3999 12.6047 20.922 14.4011 20.922C15.1334 20.922 15.7513 20.9338 16.2548 20.9574C16.7582 20.9692 17.1358 20.981 17.3875 20.9928V29.843C17.3875 30.5864 17.0957 31.1469 16.5122 31.5245C15.9287 31.9021 15.1163 32.0909 14.075 32.0909C12.3702 32.0909 11.0658 31.5776 10.1619 30.551C9.25793 29.5244 8.80597 28.0139 8.80597 26.0197Z" fill="#CEBD9A"/>
<path fill-rule="evenodd" clip-rule="evenodd" d="M7.23869 22.0871L7.24201 22.0846C7.88318 21.6139 8.6204 21.2468 9.457 20.9857L9.45966 20.9849L9.46231 20.984C10.3044 20.7061 11.0596 20.5295 11.7294 20.4502L12.0409 20.4133V19.6386L11.764 19.5765C10.9975 19.4047 10.2898 19.1648 9.63986 18.8582C8.98101 18.541 8.40312 18.1579 7.90385 17.7102L7.90196 17.7085C7.37933 17.2465 6.9755 16.6984 6.68796 16.0617C6.40337 15.42 6.2569 14.6824 6.2569 13.8418C6.2569 12.8811 6.46226 12.0903 6.85455 11.4515C7.26078 10.79 7.77605 10.2706 8.40176 9.88778L8.40397 9.88642C9.0924 9.45817 9.81696 9.16069 10.5788 8.99234L10.5798 8.99211C11.343 8.82101 12.1474 8.73488 12.9938 8.73488H23.8841V9.30463C23.6498 9.33777 23.3871 9.38715 23.0972 9.45179C22.6502 9.55146 22.2398 9.69584 21.8681 9.88707C21.4309 10.1 21.0975 10.4008 20.9278 10.8099C20.7671 11.1711 20.6918 11.5768 20.6918 12.0187V30.0731C20.6918 30.5495 20.7726 30.9737 20.9573 31.3255L20.9588 31.3283L20.9604 31.3312C21.1552 31.6867 21.4737 31.9503 21.8769 32.1381L21.8773 32.1383C22.1526 32.2661 22.5706 32.366 23.1014 32.4493L23.1051 32.4499L23.1089 32.4504C23.4616 32.4978 23.7604 32.5351 24.0042 32.5618V33.1268H12.8221C11.824 33.1268 10.8611 32.9896 9.93232 32.7159L9.93127 32.7156C8.99239 32.4422 8.1583 32.0452 7.42591 31.5266L7.42484 31.5258C6.67882 31.0018 6.07367 30.3335 5.60756 29.5174C5.15241 28.7205 4.91818 27.7715 4.91818 26.6569C4.91818 25.5636 5.1419 24.6581 5.57138 23.9235C6.01584 23.1633 6.57057 22.5538 7.23531 22.0894L7.23869 22.0871ZM24.3557 32.2325C24.0811 32.2089 23.6807 32.1617 23.1543 32.0909C22.628 32.0083 22.2504 31.9139 22.0216 31.8077C21.6669 31.6425 21.4151 31.4242 21.2664 31.1528C21.1176 30.8696 21.0433 30.5097 21.0433 30.0731V12.0187C21.0433 11.6175 21.1119 11.2634 21.2492 10.9566C21.3751 10.6498 21.6325 10.402 22.0216 10.2132C22.3648 10.0362 22.7481 9.90051 23.1715 9.80611C23.5948 9.71171 23.9495 9.65271 24.2356 9.6291V8.37238H12.9938C12.1242 8.37238 11.2946 8.46088 10.5051 8.63788C9.70417 8.81489 8.94327 9.12759 8.22242 9.576C7.54734 9.98901 6.9924 10.5495 6.5576 11.2575C6.1228 11.9656 5.9054 12.827 5.9054 13.8418C5.9054 14.7268 6.05987 15.5174 6.3688 16.2137C6.67774 16.8981 7.11254 17.4881 7.6732 17.9837C8.19954 18.4557 8.80597 18.8569 9.49249 19.1873C10.0157 19.4343 10.5733 19.6387 11.1652 19.8005C11.3312 19.8459 11.4998 19.888 11.6712 19.9267C11.6772 19.928 11.6833 19.9294 11.6894 19.9307V20.0901C11.6779 20.0914 11.6664 20.0928 11.6549 20.0942C11.4909 20.1143 11.3224 20.1399 11.1496 20.171C10.5965 20.2706 9.99831 20.4265 9.35519 20.6388C8.48559 20.9102 7.71325 21.2937 7.03817 21.7893C6.32876 22.2849 5.73949 22.9339 5.27036 23.7363C4.80124 24.5388 4.56668 25.5123 4.56668 26.6569C4.56668 27.8251 4.81268 28.84 5.30469 29.7014C5.7967 30.5628 6.43746 31.2708 7.22696 31.8254C7.99358 32.3682 8.86318 32.7812 9.83575 33.0645C10.7969 33.3477 11.7923 33.4893 12.8221 33.4893H24.3557V32.2325ZM17.3875 19.4882V9.84151C17.0099 9.82971 16.5465 9.81791 15.9973 9.80611C15.4366 9.78251 14.9732 9.77071 14.6071 9.77071C13.0281 9.77071 11.8724 10.166 11.1401 10.9566C10.4079 11.7355 10.0417 12.8152 10.0417 14.1958C10.0417 15.0218 10.1275 15.7357 10.2992 16.3376C10.4593 16.9394 10.7511 17.494 11.1745 18.0014C11.5864 18.497 12.1299 18.8687 12.805 19.1165C13.4686 19.3643 14.2696 19.4882 15.2078 19.4882H17.3875ZM12.6863 19.4577C13.3984 19.7235 14.2418 19.8507 15.2078 19.8507H17.739V9.48982L17.3982 9.47917C17.0199 9.46735 16.5565 9.45555 16.0082 9.44376C15.4465 9.42015 14.9791 9.4082 14.6071 9.4082C12.9796 9.4082 11.7121 9.815 10.8869 10.7053C10.0756 11.5687 9.69021 12.7484 9.69021 14.1958C9.69021 15.0448 9.7781 15.7938 9.96105 16.4367C10.1361 17.0926 10.4538 17.6932 10.9076 18.2373C11.3643 18.7868 11.9616 19.1916 12.6863 19.4577ZM17.3875 20.9928C17.1358 20.981 16.7582 20.9692 16.2548 20.9574C15.7513 20.9338 15.1334 20.922 14.4011 20.922C12.6047 20.922 11.226 21.3999 10.2648 22.3557C9.29226 23.3115 8.80597 24.5329 8.80597 26.0197C8.80597 28.0139 9.25793 29.5244 10.1619 30.551C11.0658 31.5776 12.3702 32.0909 14.075 32.0909C15.1163 32.0909 15.9287 31.9021 16.5122 31.5245C17.0957 31.1469 17.3875 30.5864 17.3875 29.843V20.9928ZM10.0216 22.094C11.0682 21.0536 12.5464 20.5595 14.4011 20.5595C15.1347 20.5595 15.7569 20.5712 16.2668 20.5951C16.7688 20.6068 17.1483 20.6187 17.4035 20.6306L17.739 20.6464V29.843C17.739 30.7042 17.3907 31.384 16.699 31.8316C16.0378 32.2595 15.1509 32.4534 14.075 32.4534C12.2994 32.4534 10.8891 31.9162 9.90163 30.7947C8.91768 29.6772 8.45447 28.0649 8.45447 26.0197C8.45447 24.4421 8.97444 23.1235 10.0216 22.094Z" fill="#D2B774"/>
</g>
<defs>
<filter id="filter0_i" x="4.56668" y="8.37238" width="38.0559" height="29.1169" filterUnits="userSpaceOnUse" color-interpolation-filters="sRGB">
<feFlood flood-opacity="0" result="BackgroundImageFix"/>
<feBlend mode="normal" in="SourceGraphic" in2="BackgroundImageFix" result="shape"/>
<feColorMatrix in="SourceAlpha" type="matrix" values="0 0 0 0 0 0 0 0 0 0 0 0 0 0 0 0 0 0 127 0" result="hardAlpha"/>
<feOffset dy="4"/>
<feGaussianBlur stdDeviation="2"/>
<feComposite in2="hardAlpha" operator="arithmetic" k2="-1" k3="1"/>
<feColorMatrix type="matrix" values="0 0 0 0 0 0 0 0 0 0 0 0 0 0 0 0 0 0 0.25 0"/>
<feBlend mode="normal" in2="shape" result="effect1_innerShadow"/>
</filter>
</defs>
</svg>
