<svg xmlns="http://www.w3.org/2000/svg" version="1.1" xmlns:xlink="http://www.w3.org/1999/xlink" xmlns:svgjs="http://svgjs.dev/svgjs" width="1440" height="250" preserveAspectRatio="none" viewBox="0 0 1440 250"><g mask="url(&quot;#SvgjsMask1012&quot;)" fill="none"><path d="M48 250L298 0L479.5 0L229.5 250z" fill="url(&quot;#SvgjsLinearGradient1013&quot;)"></path><path d="M278.6 250L528.6 0L749.1 0L499.1 250z" fill="url(&quot;#SvgjsLinearGradient1013&quot;)"></path><path d="M512.2 250L762.2 0L1023.2 0L773.2 250z" fill="url(&quot;#SvgjsLinearGradient1013&quot;)"></path><path d="M735.8000000000001 250L985.8000000000001 0L1201.8000000000002 0L951.8000000000001 250z" fill="url(&quot;#SvgjsLinearGradient1013&quot;)"></path><path d="M1410 250L1160 0L882.5 0L1132.5 250z" fill="url(&quot;#SvgjsLinearGradient1014&quot;)"></path><path d="M1156.4 250L906.4000000000001 0L669.4000000000001 0L919.4000000000001 250z" fill="url(&quot;#SvgjsLinearGradient1014&quot;)"></path><path d="M928.8 250L678.8 0L357.79999999999995 0L607.8 250z" fill="url(&quot;#SvgjsLinearGradient1014&quot;)"></path><path d="M679.1999999999999 250L429.19999999999993 0L186.19999999999993 0L436.19999999999993 250z" fill="url(&quot;#SvgjsLinearGradient1014&quot;)"></path><path d="M1263.8778829154542 250L1440 73.87788291545422L1440 250z" fill="url(&quot;#SvgjsLinearGradient1013&quot;)"></path><path d="M0 250L176.12211708454578 250L 0 73.87788291545422z" fill="url(&quot;#SvgjsLinearGradient1014&quot;)"></path></g><defs><mask id="SvgjsMask1012"><rect width="1440" height="250" fill="#ffffff"></rect></mask><linearGradient x1="0%" y1="100%" x2="100%" y2="0%" id="SvgjsLinearGradient1013"><stop stop-color="rgba(67, 104, 80, 0.23)" offset="0"></stop><stop stop-opacity="0" stop-color="rgba(67, 104, 80, 0.23)" offset="0.66"></stop></linearGradient><linearGradient x1="100%" y1="100%" x2="0%" y2="0%" id="SvgjsLinearGradient1014"><stop stop-color="rgba(67, 104, 80, 0.23)" offset="0"></stop><stop stop-opacity="0" stop-color="rgba(67, 104, 80, 0.23)" offset="0.66"></stop></linearGradient></defs></svg>